<svg xmlns="http://www.w3.org/2000/svg" xmlns:xlink="http://www.w3.org/1999/xlink" viewBox="0 0 500 500"><defs><style>.cls-1,.cls-2,.cls-3,.cls-4,.cls-5,.cls-6,.cls-7,.cls-8{fill-rule:evenodd;}.cls-1{fill:url(#Degradado_sin_nombre_4);}.cls-2{fill:url(#Degradado_sin_nombre_3);}.cls-3{fill:url(#Degradado_sin_nombre_5);}.cls-4{fill:url(#Degradado_sin_nombre_7);}.cls-5{fill:url(#Degradado_sin_nombre_9);}.cls-6{fill:url(#Degradado_sin_nombre_11);}.cls-7{fill:url(#Degradado_sin_nombre_13);}.cls-8{fill:url(#Degradado_sin_nombre_2);}</style><linearGradient id="Degradado_sin_nombre_4" x1="-9456.37" y1="-47004.85" x2="-13761.96" y2="-42596.75" gradientTransform="matrix(0.06, 0, 0, -0.06, 793.47, -2536.27)" gradientUnits="userSpaceOnUse"><stop offset="0" stop-color="#a9cc58"/><stop offset="1" stop-color="#81f57d"/></linearGradient><linearGradient id="Degradado_sin_nombre_3" x1="-10559.92" y1="-45146.98" x2="-13170.54" y2="-42474.2" gradientTransform="matrix(0.06, 0, 0, -0.06, 793.47, -2536.27)" gradientUnits="userSpaceOnUse"><stop offset="0" stop-color="#8fc412"/><stop offset="1" stop-color="#27d920"/></linearGradient><linearGradient id="Degradado_sin_nombre_5" x1="-8483.2" y1="-48601.9" x2="-12495.88" y2="-44493.68" gradientTransform="matrix(0.06, 0, 0, -0.06, 793.47, -2536.27)" gradientUnits="userSpaceOnUse"><stop offset="0" stop-color="#14b80e"/><stop offset="1" stop-color="#0cab4c"/></linearGradient><linearGradient id="Degradado_sin_nombre_7" x1="-4601.81" y1="-46238.19" x2="-9888.51" y2="-40825.61" gradientTransform="matrix(0.06, 0, 0, -0.06, 793.47, -2536.27)" gradientUnits="userSpaceOnUse"><stop offset="0" stop-color="#8fc412"/><stop offset="1" stop-color="#20d9b7"/></linearGradient><linearGradient id="Degradado_sin_nombre_9" x1="-9037.04" y1="-44706.25" x2="-11629.93" y2="-42051.64" gradientTransform="matrix(0.06, 0, 0, -0.06, 793.47, -2536.27)" gradientUnits="userSpaceOnUse"><stop offset="0" stop-color="#aceb1a"/><stop offset="1" stop-color="#2aebc8"/></linearGradient><linearGradient id="Degradado_sin_nombre_11" x1="-10521.5" y1="-43324.63" x2="-11939.57" y2="-41872.79" gradientTransform="matrix(0.06, 0, 0, -0.06, 793.47, -2536.27)" gradientUnits="userSpaceOnUse"><stop offset="0" stop-color="#17e310"/><stop offset="1" stop-color="#0cab4c"/></linearGradient><linearGradient id="Degradado_sin_nombre_13" x1="-6866.68" y1="-47457.6" x2="-9126.62" y2="-45143.87" gradientTransform="matrix(0.06, 0, 0, -0.06, 793.47, -2536.27)" gradientUnits="userSpaceOnUse"><stop offset="0" stop-color="#12c44e"/><stop offset="1" stop-color="#43f7eb"/></linearGradient><linearGradient id="Degradado_sin_nombre_2" x1="-8299.58" y1="-48925.63" x2="-10309.96" y2="-46867.38" gradientTransform="matrix(0.06, 0, 0, -0.06, 793.47, -2536.27)" gradientUnits="userSpaceOnUse"><stop offset="0" stop-color="#05912a"/><stop offset="1" stop-color="#038557"/></linearGradient></defs><g id="Icon_T" data-name="Icon T"><path class="cls-1" d="M3,39.69c-25.67,313.1,123,285.94,193.45,259.77,13.11-4.86,14.71-.68,10.78,10.07,14.34-33-27.46-36-68.45-53.45C38.34,221.55,9,138.49,3,39.69Z"/><path class="cls-2" d="M3,39.69c6,98.8,35.39,181.93,135.78,216.39C99.52,239.43,61,209.63,73.11,128,37.41,101.69,8.91,72.63,3,39.69Z"/><path class="cls-3" d="M73.06,128C61,209.69,99.46,239.49,138.67,256.14c41,17.39,82.85,20.46,68.44,53.46C196.71,338,147.72,412.2,169,487.46c-.43-82.7,49.68-128.77,98.18-167.42-7.7-20.33-22.59-40.55-40.69-58.31-31.45-30.84-79.65-53.51-105.81-102C104.26,149.61,88,139,73,128Z"/><path class="cls-4" d="M120.69,159.74c26.17,48.48,74.36,71.15,105.81,102,18.1,17.76,33,38,40.69,58.31,44.19-35.14,87-64.08,89.31-108.87-.06-2.76-.06-5.46-.06-8.17.12-21.5,2.64-40.37,17.11-55.6L499.42,32.81c1.72-2.52-.74-4.91-3.14-2.77L369.61,117c-20.19,13.88-37.67,17.32-51.46,17.32-72.26,0-90.42,58.67-86.11,98.86C208.16,210.56,164,186.6,120.69,159.74Zm176.23,8.54a11.31,11.31,0,1,0,11.32,11.31A11.29,11.29,0,0,0,296.92,168.28Z"/><path class="cls-5" d="M120.69,159.74C164,186.6,208.16,210.56,232,233.17,197.27,106.05,120.82,128.35,110.48,12.54,95.15,81.1,102.72,126.51,120.69,159.74Z"/><path class="cls-6" d="M120.69,159.74c-18-33.23-25.54-78.7-10.21-147.2C89.18,59.66,77.61,97.45,73.06,128c15,11.06,31.26,21.63,47.63,31.77Z"/><path class="cls-7" d="M356.44,211.17C354.22,255.9,311.32,284.9,267.13,320c11.26,29.8,7.2,59.72-24.5,82.08,11.33-7.86,22.1-14.81,30.65-20.58,90.11-61.25,83.77-121.71,83.16-170.31Z"/><path class="cls-8" d="M242.69,402.12c31.7-22.36,35.76-52.28,24.5-82.08-48.51,38.58-98.61,84.72-98.18,167.42,5.3-33.61,41.86-63.22,73.74-85.34Z"/></g></svg>