<svg xmlns="http://www.w3.org/2000/svg" xmlns:xlink="http://www.w3.org/1999/xlink" viewBox="0 0 768.16 366.5"><defs><style>.cls-1{fill:url(#Gradient_2);}.cls-2{fill:url(#Gradient_2-2);}.cls-3{fill:url(#Gradient_2-3);}.cls-4{fill:url(#Gradient_2-4);}.cls-5{fill:url(#Gradient_2-5);}.cls-6{fill:url(#Gradient_2-6);}</style><linearGradient id="Gradient_2" y1="183.25" x2="768.16" y2="183.25" gradientUnits="userSpaceOnUse"><stop offset="0" stop-color="#aceb1a"/><stop offset="1" stop-color="#29db76"/></linearGradient><linearGradient id="Gradient_2-2" x1="82.29" y1="231.37" x2="738.11" y2="231.37" xlink:href="#Gradient_2"/><linearGradient id="Gradient_2-3" x1="146.25" y1="263.29" x2="684.71" y2="263.29" xlink:href="#Gradient_2"/><linearGradient id="Gradient_2-4" x1="208.68" y1="256.4" x2="633.66" y2="256.4" xlink:href="#Gradient_2"/><linearGradient id="Gradient_2-5" x1="250.76" y1="240.85" x2="591.66" y2="240.85" xlink:href="#Gradient_2"/><linearGradient id="Gradient_2-6" x1="280.98" y1="222.29" x2="566.27" y2="222.29" xlink:href="#Gradient_2"/></defs><g id="Capa_2" data-name="Capa 2"><g id="Support_lines" data-name="Support lines"><path class="cls-1" d="M768.16,0c-.15,1.5-.63,6.58-1.42,14.8q-.3,3.09-.67,6.75c-.13,1.22-.22,2.48-.4,3.8s-.37,2.67-.56,4.08c-.8,5.63-1.62,12-2.69,19l-2,11q-.52,2.88-1.08,5.88l-.56,3c-.23,1-.47,2-.7,3.08l-3,12.9q-.39,1.67-.78,3.36c-.32,1.13-.64,2.26-1,3.41-.65,2.29-1.32,4.61-2,7-5.49,18.81-13.09,39.91-25.85,61.5a174.89,174.89,0,0,1-24.08,31.61c-2.54,2.44-5.13,4.88-7.74,7.33-2.77,2.3-5.59,4.6-8.47,6.86l-4.53,3.18c-1.53,1-3,2.15-4.65,3.07l-4.83,2.88-1.21.72-1.26.65-2.53,1.29-5.11,2.56c-1.75.78-3.55,1.49-5.34,2.23l-2.69,1.09a28.94,28.94,0,0,1-2.74,1l-5.59,1.8c-.93.28-1.86.61-2.81.86l-2.86.69-5.76,1.36c-1.93.37-3.87.66-5.82,1s-3.9.66-5.85.8l-5.86.54c-1,.11-1.95.13-2.92.17l-2.92.09-2.92.09-1.47,0-1.44,0-5.78-.14c-2,0-3.81-.22-5.72-.34s-3.83-.24-5.69-.46c-3.72-.44-7.52-.8-11.16-1.4l-5.52-.85-5.42-1-2.72-.48-2.66-.54-5.35-1.07c-7-1.5-14-3.07-20.85-4.64-13.71-3.14-27.08-6.2-40.25-8.25a203.31,203.31,0,0,0-38.9-2.85,150,150,0,0,0-37.29,5.84c-.76.22-1.53.38-2.27.65l-2.25.77-4.48,1.52c-1.51.46-3,1.13-4.43,1.72l-4.41,1.8c-1.49.56-2.9,1.3-4.34,2s-2.89,1.31-4.26,2.06L386.19,228l-4,2.33a130.79,130.79,0,0,0-15.08,10.5,133.26,133.26,0,0,0-13.48,12.63c-8.6,9.11-16.51,19.81-25.28,31.17s-18.58,23.19-30.09,33.5a177.17,177.17,0,0,1-18.13,14.18,186,186,0,0,1-19.29,11.4,211.58,211.58,0,0,1-39.73,15.2,223.87,223.87,0,0,1-39.25,6.75,259.57,259.57,0,0,1-36.66.42,332.06,332.06,0,0,1-62-9.89A446.43,446.43,0,0,1,37.84,342c-12.28-4.53-21.7-8.5-28.09-11.26-3.2-1.37-5.63-2.47-7.27-3.2L0,326.42c12.76,4.27,25.62,8.21,38.66,11.58,6.5,1.72,13.07,3.23,19.63,4.69s13.17,2.71,19.81,3.79a338.64,338.64,0,0,0,54.94,11,277.58,277.58,0,0,0,28.32,1.74A240.56,240.56,0,0,0,190,357.66a216.13,216.13,0,0,0,28.42-5.15,204.58,204.58,0,0,0,27.57-9.22A180.16,180.16,0,0,0,272.07,330a164.17,164.17,0,0,0,23.66-17.89,208.19,208.19,0,0,0,20-21.08c6.05-7.25,11.61-14.55,17-21.44s10.79-13.43,16.44-19.35a140.68,140.68,0,0,1,18-16,134.69,134.69,0,0,1,20.4-12.5c1.77-.95,3.64-1.75,5.48-2.6.93-.42,1.84-.86,2.77-1.26l2.83-1.12,5.66-2.25c1.9-.68,3.83-1.27,5.74-1.91l2.88-1c.95-.34,1.94-.53,2.91-.8l5.83-1.54c1.95-.47,3.93-.8,5.9-1.22l3-.6c1-.18,2-.28,3-.43l6-.85,6-.5c2-.22,4-.25,6.05-.31l3-.11,1.52,0,1.52,0,6.12.1c2,.08,4.1.24,6.15.35,1,.07,2,.1,3.07.2l3.1.32c2.06.23,4.11.35,6.19.68l6.23.84,6.25,1c2.09.32,4.19.75,6.29,1.15s4.2.79,6.32,1.26c8.43,1.72,17,3.79,25.71,5.85s17.59,4.22,26.77,6.11,18.63,3.55,28.44,4.6a164.85,164.85,0,0,0,30.44.43,126.5,126.5,0,0,0,31-6.43l.95-.3.93-.36,1.86-.74,3.7-1.48c2.51-.93,4.85-2.16,7.23-3.32l3.56-1.77c1.2-.56,2.3-1.3,3.45-1.94l3.41-2,1.7-1,1.64-1.11a134.61,134.61,0,0,0,24-20.15l5.27-5.7c1.65-2,3.21-4,4.81-6,3.32-4,6-8.21,8.86-12.37,11-16.87,19-34.91,25.2-53.07l1.21-3.41.6-1.7.51-1.72,2-6.86c1.33-4.57,2.79-9.14,3.8-13.74l3.33-13.8c1-4.6,1.81-9.21,2.72-13.82l1.33-6.91c.43-2.31.71-4.62,1.08-6.92L765,27.67c.16-1.15.36-2.31.49-3.46l.38-3.46.76-6.91Z"/><path class="cls-2" d="M738.11,106.35l-3.87,11.35c-2.51,6.21-5.79,14.85-11.07,25.13s-12.3,22.33-22.79,34.47l-4.11,4.52-2.1,2.3-2.31,2.19-4.71,4.45c-1.66,1.44-3.42,2.82-5.16,4.25a121,121,0,0,1-24,15,118.82,118.82,0,0,1-29.3,9.33,138.08,138.08,0,0,1-32.13,1.8,239.06,239.06,0,0,1-32.35-4.21c-10.72-2.05-21.35-4.53-32-7-21.27-4.87-42.72-9.49-64.33-10.46a161.32,161.32,0,0,0-63.53,9.26c-1.29.4-2.54.93-3.79,1.45l-3.75,1.54c-1.25.52-2.52,1-3.75,1.55L389.37,215c-2.48,1.1-4.81,2.42-7.2,3.64-1.21.6-2.33,1.32-3.49,2s-2.32,1.32-3.45,2a138.68,138.68,0,0,0-24.84,19.58,237.47,237.47,0,0,0-21,24.41c-6.7,8.67-13.41,17.7-20.81,26.31a179.56,179.56,0,0,1-24.31,23.7,165.34,165.34,0,0,1-27.49,17.73A199.55,199.55,0,0,1,200.82,353a236.45,236.45,0,0,1-49.25,3.21,296.62,296.62,0,0,1-37.46-3.88c-10.26-1.72-18.19-3.53-23.59-4.79l-8.23-2.06a322.3,322.3,0,0,0,63.78,4c7.3.47,14.63.67,22,.53s14.69-.59,22-1.53l2.74-.31,2.74-.42c1.82-.28,3.64-.54,5.46-.84,3.62-.72,7.27-1.32,10.85-2.22a190.64,190.64,0,0,0,21.3-6.2l5.21-1.94c1.75-.62,3.43-1.42,5.14-2.12,3.44-1.38,6.77-3,10.13-4.62a173.74,173.74,0,0,0,19.31-11.29,170.37,170.37,0,0,0,33-30c9.66-11.16,18.08-22.89,27-33.64s18.58-20.58,29.6-28.58a152.12,152.12,0,0,1,17.3-10.85A164.72,164.72,0,0,1,398.57,207a161.57,161.57,0,0,1,39.65-9.82,189.84,189.84,0,0,1,41.06.21c13.75,1.44,27.49,4.24,41.32,7.38s27.79,6.74,42.18,9.7c7.2,1.44,14.5,2.8,22,3.68,1.88.21,3.72.52,5.62.64l5.67.47c1.89.18,3.82.16,5.73.25s3.82.17,5.76.08l5.79-.13c1.94-.09,3.88-.3,5.82-.45l2.92-.25c1-.12,1.94-.29,2.9-.43l5.82-.9,5.76-1.31c1-.24,1.93-.43,2.88-.69l2.83-.88c1.88-.59,3.78-1.15,5.65-1.79l5.5-2.19c.91-.37,1.84-.72,2.74-1.11l2.65-1.3,5.3-2.62c1.72-.95,3.4-2,5.1-3,.84-.5,1.7-1,2.53-1.51l2.44-1.66c1.61-1.11,3.25-2.21,4.85-3.35l4.6-3.67,2.3-1.84c.75-.63,1.44-1.31,2.17-2l4.29-4A157.88,157.88,0,0,0,720,147.69l1.44-2.47,1.28-2.54,2.54-5.08,2.53-5.08,2.21-5.19,2.2-5.19,1.1-2.6.54-1.3.48-1.32Z"/><path class="cls-3" d="M684.71,179.76l-2.23,2.14-2,1.9L677.75,186l-3.31,2.7a21.05,21.05,0,0,1-1.93,1.44l-2.12,1.48-2.26,1.59-1.18.82-1.27.77-5.46,3.26a111.41,111.41,0,0,1-29.43,11c-11.75,2.68-25.29,3.19-39.66,2-7.18-.67-14.6-1.66-22.16-3.08-3.8-.64-7.61-1.48-11.49-2.24s-7.78-1.67-11.72-2.58c-7.91-1.77-16-3.67-24.22-5.46s-16.66-3.49-25.26-4.85c-2.15-.32-4.3-.71-6.47-1l-6.54-.82c-2.19-.26-4.39-.42-6.6-.63l-3.31-.29L470,190l-3.34-.17c-1.11-.06-2.23-.12-3.35-.1l-6.72-.05c-2.24,0-4.48.17-6.74.25l-3.38.15-3.37.33-3.38.32c-1.12.11-2.25.18-3.37.38l-6.73,1c-.56.09-1.13.16-1.69.27l-1.67.35-3.34.71c-2.22.47-4.47.9-6.65,1.56l-6.61,1.81c-2.18.67-4.33,1.46-6.5,2.18l-3.25,1.11c-1.08.37-2.13.85-3.19,1.27l-6.36,2.6a150.92,150.92,0,0,0-45.18,29.92,208,208,0,0,0-17.89,19.86c-5.55,6.91-10.8,14-16.13,20.8s-10.81,13.47-16.6,19.57a157.92,157.92,0,0,1-18.26,16.57,165,165,0,0,1-39.19,22.08,195.51,195.51,0,0,1-36.46,10.51,209.33,209.33,0,0,1-29,3.25l-3,.14-2.79.05-5.06.07c-3.14-.05-5.81-.07-8-.13l-6.63-.31A226.53,226.53,0,0,0,195.34,339a179.25,179.25,0,0,0,63.72-22,144.4,144.4,0,0,0,14.13-9.34,162.59,162.59,0,0,0,13-10.93q6.13-5.88,11.78-12.29c3.76-4.29,7.36-8.71,10.92-13.2,7.11-9,14-18.21,21.64-26.89,3.81-4.34,7.76-8.58,12-12.54a144.38,144.38,0,0,1,13.22-11.23A155,155,0,0,1,385.49,203a185.38,185.38,0,0,1,32.65-11.2,173.63,173.63,0,0,1,34.18-4.27,213,213,0,0,1,34.34,2c22.78,3,45,9.05,67.37,14.14a324,324,0,0,0,34,6.12c1.43.2,2.87.32,4.31.43l4.32.36c2.89.2,5.79.22,8.68.34,2.9-.06,5.81-.07,8.71-.22l4.34-.36c1.45-.13,2.9-.21,4.34-.47C645.87,206.86,667.83,195.91,684.71,179.76Z"/><path class="cls-4" d="M633.66,199.86a98.81,98.81,0,0,1-22.48,3.44l-5.23.17c-1.82,0-3.73-.08-5.71-.11s-4-.19-6.17-.34l-3.25-.24c-1.1-.1-2.22-.25-3.36-.37a304.51,304.51,0,0,1-30.29-5.16c-11-2.35-23-5.24-35.74-8a356.94,356.94,0,0,0-40.66-6.73,204.63,204.63,0,0,0-44.37.23,176.87,176.87,0,0,0-44.3,11.6,163.68,163.68,0,0,0-39.8,22.51,161.26,161.26,0,0,0-16.74,15c-5.15,5.28-9.87,10.78-14.29,16.26-8.83,11-16.57,21.8-24.55,31.23a162.46,162.46,0,0,1-24.47,24.06c-16.61,13.12-33.29,20-44.87,24.27-2.95,1-5.56,1.9-7.87,2.57l-5.88,1.69-4.95,1.22,4.54-1.64,4.46-1.81,2.21-.91c.74-.31,1.46-.66,2.19-1l4.34-2c1.44-.67,2.84-1.44,4.25-2.15s2.84-1.39,4.2-2.21c2.74-1.59,5.51-3.06,8.13-4.79a145.63,145.63,0,0,0,22.29-12.88,144.18,144.18,0,0,0,19.6-16.69,255.44,255.44,0,0,0,17.38-20c5.62-7.08,11.19-14.46,17.22-21.75a212,212,0,0,1,19.64-21,159.13,159.13,0,0,1,23.18-17.68,171.07,171.07,0,0,1,25.78-13.17l6.7-2.68c2.24-.86,4.56-1.55,6.83-2.33,4.53-1.63,9.25-2.7,13.89-4,2.34-.57,4.72-1,7.07-1.48l3.55-.71c1.18-.2,2.38-.35,3.57-.53,2.38-.32,4.76-.71,7.15-1l7.18-.62a201.25,201.25,0,0,1,28.64.1c9.47.73,18.85,2,28.09,3.6s18.33,3.65,27.34,5.74,17.91,4.29,26.79,6.31,17.71,3.89,26.55,5.19a169.77,169.77,0,0,0,26.42,2A104.7,104.7,0,0,0,633.66,199.86Z"/><path class="cls-5" d="M591.66,195.39c-1.12-.12-7.48-.63-18-2.45-2.63-.46-5.52-1-8.67-1.63s-6.53-1.34-10.15-2.13l-24.4-5.51c-9-2-18.86-4.11-29.46-5.88a260,260,0,0,0-33.94-3.6,194.9,194.9,0,0,0-36.93,2.06,185.19,185.19,0,0,0-37,9.73l-8.85,3.62c-1.48.57-2.89,1.32-4.34,2l-4.31,2a179.48,179.48,0,0,0-16.58,9.46,163.3,163.3,0,0,0-28.69,23.53c-4.19,4.26-8,8.63-11.59,12.91s-6.88,8.52-10,12.6c-6.26,8.12-11.87,15.62-17.26,22a173.28,173.28,0,0,1-15.32,16.26,128,128,0,0,1-13,10.66c-1.86,1.4-3.63,2.51-5.14,3.51-.76.49-1.44,1-2.1,1.37L254.06,307l-3.3,2A137,137,0,0,0,272,289.71c9.87-8.59,18.57-18.9,27.47-30.32s18.27-23.8,29.69-35.17a168.51,168.51,0,0,1,18.37-15.91A174.16,174.16,0,0,1,368,195.21a194.44,194.44,0,0,1,21.82-10A186.5,186.5,0,0,1,412.72,178a184.22,184.22,0,0,1,47.45-5.25c2,0,4,0,5.92.13l5.88.34,2.94.18,2.91.29,5.82.58c1.93.22,3.84.5,5.76.76s3.85.49,5.74.82c3.78.63,7.59,1.23,11.31,2,15,2.83,29.46,6.47,43.6,9.8S578.06,193.93,591.66,195.39Z"/><path class="cls-6" d="M566.27,185.64l-4.43-.87c-2.5-.55-5.89-1.24-10.2-2.22-8.58-1.88-20.6-4.81-35.45-7.82s-32.63-5.93-52.31-6.41a206.8,206.8,0,0,0-30.45,1.59l-7.77,1.18c-1.3.17-2.59.47-3.88.73l-3.87.82-3.88.83c-1.28.31-2.55.68-3.83,1-2.55.71-5.11,1.39-7.65,2.13l-7.49,2.54c-1.24.44-2.5.83-3.72,1.31L387.71,182c-2.42,1-4.84,2-7.23,3l-7,3.31a175.47,175.47,0,0,0-26.23,15.93,173.63,173.63,0,0,0-21.51,18.93c-6.26,6.47-11.57,12.84-16.19,18.62s-8.55,11-12,15.5-6.37,8.19-8.81,11.15-4.37,5.21-5.7,6.68l-1.52,1.71c-.34.39-.52.57-.52.57,4.51-6.2,8.72-12.89,13.07-19.93,7.05-9,14.48-18.81,23.09-28.46,4.32-4.82,9-9.55,13.86-14.08a177.62,177.62,0,0,1,15.62-12.73,180.91,180.91,0,0,1,34.78-19.42l9.14-3.66c3.08-1.13,6.24-2.11,9.36-3.16l2.34-.77c.79-.23,1.6-.44,2.39-.65l4.79-1.28c1.6-.4,3.18-.89,4.8-1.21l4.85-1a194.14,194.14,0,0,1,39.15-3.75,250.09,250.09,0,0,1,38.15,3.26C521.12,174.4,544.24,181,566.27,185.64Z"/></g></g></svg>