<svg xmlns="http://www.w3.org/2000/svg" xmlns:xlink="http://www.w3.org/1999/xlink" viewBox="0 0 562.7 136.48"><defs><style>.cls-1{fill:url(#Gradient_2);}.cls-2{fill:url(#Gradient_2-2);}.cls-3{fill:url(#Gradient_2-3);}.cls-4{fill:url(#Gradient_2-4);}.cls-5{fill:url(#Gradient_2-5);}.cls-6{fill:url(#Gradient_2-6);}</style><linearGradient id="Gradient_2" y1="86.07" x2="562.7" y2="86.07" gradientUnits="userSpaceOnUse"><stop offset="0" stop-color="#aceb1a"/><stop offset="1" stop-color="#29db76"/></linearGradient><linearGradient id="Gradient_2-2" x1="40.41" y1="76.49" x2="504.11" y2="76.49" xlink:href="#Gradient_2"/><linearGradient id="Gradient_2-3" x1="73.55" y1="67.34" x2="447.05" y2="67.34" xlink:href="#Gradient_2"/><linearGradient id="Gradient_2-4" x1="112.06" y1="59.29" x2="409.65" y2="59.29" xlink:href="#Gradient_2"/><linearGradient id="Gradient_2-5" x1="145.54" y1="50.9" x2="383.13" y2="50.9" xlink:href="#Gradient_2"/><linearGradient id="Gradient_2-6" x1="180.21" y1="44.07" x2="369.51" y2="44.07" xlink:href="#Gradient_2"/></defs><g id="Capa_2" data-name="Capa 2"><g id="Support_lines" data-name="Support lines"><path class="cls-1" d="M562.7,39.26c-.62.82-2.7,3.57-6.21,8s-8.47,10.35-15,17.51A303.57,303.57,0,0,1,516.83,89a224.81,224.81,0,0,1-36.64,26.37,173.29,173.29,0,0,1-23.86,11.32,151.91,151.91,0,0,1-27.7,7.73A138.3,138.3,0,0,1,398,136.32a129.07,129.07,0,0,1-31.82-5.65,156,156,0,0,1-29.54-12.76,297.67,297.67,0,0,1-25.89-16.38c-8.15-5.66-15.92-11.37-23.58-16.79s-15.21-10.55-22.84-15.2a189.31,189.31,0,0,0-46.93-21.15,171.71,171.71,0,0,0-48.74-6.52A213,213,0,0,0,122,47.59l-5.51,1.23-5.4,1.52-5.31,1.5c-1.76.51-3.52.92-5.22,1.55-6.85,2.37-13.52,4.41-19.76,7l-9.23,3.64L62.85,68,54.6,71.72l-7.67,3.89c-10,4.84-18.36,9.86-25.36,13.73L19,90.77l-2.36,1.46-4.28,2.64L5.62,99,0,102.5l9.54-8.25,4.8-4.15c1.6-1.38,3.2-2.78,4.86-4.06l9.92-7.88,5-4,5.12-3.72C60,60.07,81.42,51.27,103.35,45.13c5.51-1.42,11-3.09,16.52-4.1l8.3-1.74L136.5,38l4.16-.63c1.39-.23,2.79-.29,4.17-.44l8.34-.8c2.78-.17,5.56-.21,8.33-.34,1.39,0,2.78-.12,4.16-.14l4.15.08,4.14.09,2.07,0c.69,0,1.37.1,2.06.15l8.23.63,8.15,1.07c.68.09,1.36.17,2,.28l2,.38,4,.76a176.9,176.9,0,0,1,31.35,9.35,210.62,210.62,0,0,1,29.46,15c9.57,5.85,18.9,12.41,28.38,19.37l14.42,10.64c4.93,3.59,9.92,7.21,15.15,10.76,10.44,7.07,21.75,14,34.41,19.28a131.34,131.34,0,0,0,19.76,6.62c.86.21,1.7.45,2.56.64l2.59.52c1.74.33,3.46.72,5.2,1,3.5.48,7,1,10.51,1.21a130,130,0,0,0,21-.07c3.48-.24,6.93-.73,10.38-1.22l5.13-.93c1.71-.3,3.38-.74,5.08-1.1a156.22,156.22,0,0,0,19.71-6.08,177.75,177.75,0,0,0,18.49-8.42,191.93,191.93,0,0,0,17.18-10.21q8.27-5.49,15.94-11.58C529.64,77.66,547.06,58.88,562.7,39.26Z"/><path class="cls-2" d="M504.11,86.35c-.63.52-2.74,2.3-6.3,5s-8.58,6.42-15.1,10.58a170.14,170.14,0,0,1-24.36,12.94,140.24,140.24,0,0,1-34.11,9.93,120,120,0,0,1-20.28,1.5c-3.51.07-7.1-.26-10.73-.48-3.61-.45-7.3-.83-11-1.6a123.7,123.7,0,0,1-21.95-6.32,163.36,163.36,0,0,1-20.91-10.08c-13.51-7.65-26-16.77-38.37-25.63S276.41,64.66,263.6,57.36A195,195,0,0,0,224,39.79,178.85,178.85,0,0,0,183,32.2c-3.39-.2-6.74-.5-10.08-.43l-5,0h-2.47c-.82,0-1.64.08-2.46.12l-9.71.51-9.46,1c-3.12.26-6.17.9-9.18,1.37l-4.48.75-2.22.36c-.73.14-1.45.32-2.18.48l-8.53,1.91c-1.39.33-2.78.59-4.14,1l-4,1.13c-5.31,1.52-10.43,2.83-15.18,4.57l-7,2.36-3.35,1.14-3.2,1.26L68.65,54.34c-.91.34-1.79.72-2.64,1.12L63.5,56.59,58.82,58.7l-7.9,3.57c-2.28,1.09-4.18,2.1-5.74,2.88l-4.77,2.42,8.29-6c2.8-2,5.67-3.76,8.52-5.66l8.61-5.64L74.69,45A300.83,300.83,0,0,1,128.89,30a217,217,0,0,1,55.51-2.6c1.15.09,2.31.15,3.45.28l3.43.46c2.28.31,4.58.57,6.85.93,4.52.88,9.07,1.6,13.52,2.79a179.66,179.66,0,0,1,26.22,8.46c17,6.92,32.92,16.53,48.27,27.34,7.69,5.4,15.28,11.09,23,16.79s15.63,11.43,24,16.78a177.63,177.63,0,0,0,26.75,14.25,119.68,119.68,0,0,0,30,8.24c1.3.17,2.59.38,3.9.51l3.91.3c2.61.26,5.21.24,7.82.29s5.21-.09,7.82-.17c1.3-.05,2.6-.2,3.9-.3s2.6-.19,3.88-.39a135.9,135.9,0,0,0,30.22-7.23c4.87-1.7,9.59-3.77,14.24-5.93s9.15-4.59,13.53-7.19A214.76,214.76,0,0,0,504.11,86.35Z"/><path class="cls-3" d="M447.05,109c-.58.27-2.61.94-5.89,2-1.66.51-3.64,1.08-5.92,1.72s-4.89,1.25-7.81,1.77a117.68,117.68,0,0,1-20.83,2.22,106.86,106.86,0,0,1-26.45-2.7,126,126,0,0,1-29.06-10.76c-4.88-2.46-9.71-5.28-14.56-8.26s-9.65-6.22-14.45-9.58c-19.22-13.4-38.74-28.67-60.43-40.11A196.21,196.21,0,0,0,228.19,31.1a186.86,186.86,0,0,0-34.31-7.48l-4.23-.5c-.7-.07-1.39-.18-2.1-.23l-2.1-.13-8.29-.52c-2.74,0-5.45,0-8.13-.06l-4,0-3.93.21-7.71.4c-2.53.2-5,.52-7.45.77s-4.85.48-7.19.84l-6.88,1.15c-2.25.39-4.46.71-6.6,1.14L119,28.07c-4.05.92-7.91,1.69-11.45,2.78l-10,2.81c-1.55.4-3,1-4.38,1.41l-4,1.35c-5,1.73-9,3-11.63,4.09l-4.06,1.6c2.4-1.39,4.78-2.86,7.22-4.19l7.41-3.87c2.48-1.28,4.95-2.62,7.47-3.86l7.66-3.49,5.6-1.5c.93-.27,1.87-.48,2.82-.67l2.84-.59c3.79-.78,7.56-1.65,11.36-2.34l11.47-1.76c1.9-.34,3.84-.43,5.76-.64l5.77-.56a211.09,211.09,0,0,1,46.26,1.19,198.84,198.84,0,0,1,22.69,4.53,206.85,206.85,0,0,1,21.91,7.3,223.9,223.9,0,0,1,20.88,9.76c6.76,3.65,13.33,7.61,19.75,11.8,12.85,8.35,25,17.67,37.35,26.7s25,17.83,38.87,24.5a121.82,121.82,0,0,0,21.67,8.07,110.08,110.08,0,0,0,22.93,3.5,118,118,0,0,0,23.22-1.3A127.55,127.55,0,0,0,447.05,109Z"/><path class="cls-4" d="M409.65,108.3a45.84,45.84,0,0,1-4.64.13c-1.29,0-2.83,0-4.59,0s-3.74-.21-5.93-.39a103.55,103.55,0,0,1-15.28-2.72,115.86,115.86,0,0,1-18.67-6.63,171.44,171.44,0,0,1-20.68-11.32c-7.13-4.48-14.46-9.61-22-15-15.12-10.82-31.34-22.8-49.13-32.57s-36.89-17.32-55.53-21.23l-3.47-.78-3.47-.6L199.4,16l-6.74-.8c-2.22-.27-4.4-.55-6.58-.64l-6.42-.4c-1,0-2.09-.16-3.13-.16l-3.09,0-6,0c-1,0-2,0-2.92,0l-2.86.14c-15.15.44-27.52,2.7-36.15,4.16-1.09.15-2.1.4-3,.61l-2.67.6-4.21.94-3.5.79c4.25-1.64,8.5-3.38,12.84-4.94l13.2-4.28a251.48,251.48,0,0,1,38.33-1.62,209.39,209.39,0,0,1,38.11,5.3A200.82,200.82,0,0,1,250.88,28a253,253,0,0,1,33.21,18.41c10.53,6.85,20.53,14.22,30.36,21.5S334,82.35,344.05,88.6a157.4,157.4,0,0,0,15.38,8.58,112.42,112.42,0,0,0,16.11,6.47,96.21,96.21,0,0,0,16.82,3.77c2.84.48,5.73.56,8.61.83l4.33.09,2.18,0Z"/><path class="cls-5" d="M383.13,98.59c-1.37-.28-15.79-3.15-35.32-15C338,77.73,326.92,69.78,314.73,61S289.14,42.77,274.6,34.59a248.91,248.91,0,0,0-22.34-11.18,229.18,229.18,0,0,0-22.86-8.36,211.92,211.92,0,0,0-42.29-7.87l-9-.56c-2.86-.1-5.56-.06-8.1-.09-5.09-.13-9.49.2-13.13.38l-4.84.26c-1.41.08-2.59.26-3.55.35l-3,.32L151,6.41c1.85-.41,3.71-.76,5.58-1.14l5.62-1.12c.94-.17,1.88-.39,2.83-.53l2.85-.4,7.94.14c1.32,0,2.64.11,4,.21l4,.29,4,.3c.66.06,1.32.09,2,.16l2,.26,7.9,1a218,218,0,0,1,31,7.21C251,19.17,270,28.91,287.17,40.1S320,63.69,335.45,74.56a221.4,221.4,0,0,0,23.37,14.56A109.88,109.88,0,0,0,383.13,98.59Z"/><path class="cls-6" d="M369.51,88.14l-2.47-1c-1.38-.6-3.26-1.5-5.6-2.62a191.74,191.74,0,0,1-18.72-10.94c-7.64-5-16.49-11.4-26.31-18.45-4.9-3.52-10.08-7.17-15.45-10.83S290,37,284.17,33.5a244,244,0,0,0-35.93-18c-3-1.21-6-2.25-9-3.34s-5.88-1.91-8.72-2.79l-8.35-2.29-7.89-1.8-1.87-.42c-.62-.13-1.24-.22-1.85-.33L207,3.91c-2.33-.38-4.52-.83-6.61-1.09L189.63,1.56,180.21,1,189.6.23c3.14-.11,6.3-.16,9.48-.23a209.84,209.84,0,0,1,50.33,13.82,257.42,257.42,0,0,1,44.83,24.36C321.83,56.52,345,77.58,369.51,88.14Z"/></g></g></svg>