<svg xmlns="http://www.w3.org/2000/svg" xmlns:xlink="http://www.w3.org/1999/xlink" viewBox="0 0 1565.88 161.16"><defs><style>.cls-1{fill:url(#Gradient_2);}.cls-2{fill:url(#Gradient_2-2);}.cls-3{fill:url(#Gradient_2-3);}.cls-4{fill:url(#Gradient_2-4);}.cls-5{fill:url(#Gradient_2-5);}.cls-6{fill:url(#Gradient_2-6);}</style><linearGradient id="Gradient_2" y1="97.08" x2="1565.88" y2="97.08" gradientUnits="userSpaceOnUse"><stop offset="0" stop-color="#aceb1a"/><stop offset="1" stop-color="#29db76"/></linearGradient><linearGradient id="Gradient_2-2" x1="121.43" y1="87.45" x2="1386.64" y2="87.45" xlink:href="#Gradient_2"/><linearGradient id="Gradient_2-3" x1="225.75" y1="79.13" x2="1230.95" y2="79.13" xlink:href="#Gradient_2"/><linearGradient id="Gradient_2-4" x1="341.26" y1="72.8" x2="1150.48" y2="72.8" xlink:href="#Gradient_2"/><linearGradient id="Gradient_2-5" x1="433.12" y1="65.59" x2="1074.37" y2="65.59" xlink:href="#Gradient_2"/><linearGradient id="Gradient_2-6" x1="515.2" y1="60.03" x2="1020.85" y2="60.03" xlink:href="#Gradient_2"/></defs><g id="Capa_2" data-name="Capa 2"><g id="Support_lines" data-name="Support lines"><path class="cls-1" d="M1565.88,58.89c-2.06,1.77-8.94,7.85-20.67,17.1a463.23,463.23,0,0,1-50.64,34.74c-5.59,3.24-11.47,6.6-17.79,9.84-3.13,1.67-6.41,3.23-9.72,4.89l-5.09,2.38-2.58,1.21-2.64,1.16a315.47,315.47,0,0,1-47,16.66,275.8,275.8,0,0,1-27,5.78,257.57,257.57,0,0,1-29,3.16,258.85,258.85,0,0,1-30.73-.18,225.63,225.63,0,0,1-32.14-4.35,219.39,219.39,0,0,1-32.56-9.47,254.59,254.59,0,0,1-31.37-14.56c-20.33-11-39-24.34-57.4-36.67s-36.91-23.73-56.84-32.12a210.58,210.58,0,0,0-30.88-10.39,233.58,233.58,0,0,0-32.76-5.86c-11.07-1-22.21-1.63-33.17-.67a167,167,0,0,0-32.54,5.63,191.65,191.65,0,0,0-31.72,12.37c-10.5,5.12-21,11.15-31.53,17.67s-21.28,13.53-32.37,20.55-22.55,14-34.48,20.57c-3,1.61-6,3.3-9,4.84l-9.2,4.65c-6.27,2.91-12.51,5.88-19,8.47l-4.81,2c-1.61.64-3.26,1.22-4.89,1.83-3.28,1.18-6.52,2.46-9.83,3.56l-10,3.18c-.83.26-1.66.54-2.49.79l-2.53.68-5,1.37c-6.7,2-13.55,3.25-20.34,4.78-3.41.68-6.84,1.21-10.25,1.81l-5.13.87c-1.71.31-3.43.45-5.15.69l-10.28,1.26c-1.72.24-3.43.36-5.15.48L715,160c-3.42.24-6.85.58-10.28.72l-10.28.31-5.14.15c-1.72,0-3.44,0-5.16-.06l-10.31-.18c-1.72,0-3.44-.16-5.15-.25l-5.15-.33c-3.44-.26-6.87-.36-10.29-.81L643,158.37c-1.71-.17-3.41-.44-5.11-.72l-5.09-.82c-6.8-1-13.48-2.52-20.18-3.89-3.33-.77-6.61-1.67-9.92-2.5l-4.94-1.27-4.87-1.46c-3.23-1-6.5-1.91-9.69-3l-9.53-3.28c-12.57-4.58-24.83-9.6-36.58-15.06-23.56-10.87-45.48-22.79-66.73-33.71-10.63-5.43-21.1-10.72-31.51-15.5-5.2-2.48-10.41-4.67-15.57-7-2.59-1.12-5.19-2.12-7.77-3.19s-5.16-2.13-7.76-3.05A365.7,365.7,0,0,0,346,46.38c-5.14-.84-10.25-1.71-15.33-2.51-5.12-.6-10.19-1.27-15.24-1.82l-15.1-1.2-14.94-.55A427.34,427.34,0,0,0,228.15,43a462.76,462.76,0,0,0-52,9.26c-16.33,4-31.63,8.56-45.82,13.49a542.48,542.48,0,0,0-71.54,31c-19.25,10-33.87,18.87-43.76,25-2.48,1.53-4.65,2.92-6.52,4.12s-3.45,2.21-4.7,3.05L0,131.46c36-27.06,74.72-50.7,116.1-69.13A482.93,482.93,0,0,1,206.63,38.4a430.32,430.32,0,0,1,93-4.67,395.71,395.71,0,0,1,46,5.65,373.15,373.15,0,0,1,44.8,11.53c29.44,9.48,57.57,23.15,85.82,37.94,14.14,7.38,28.36,15,43,22.42s29.59,14.46,45.15,20.66a351.5,351.5,0,0,0,48.13,15.45,322.07,322.07,0,0,0,50.24,7.74l6.34.43,3.17.22,3.17.08,12.67.27c4.22,0,8.42-.19,12.64-.28,2.1-.08,4.21-.05,6.31-.22l6.31-.44,6.3-.45,3.16-.23,3.15-.37,12.6-1.48,12.55-2.07,3.14-.52,3.11-.67,6.24-1.34a314.46,314.46,0,0,0,48.73-15,375.82,375.82,0,0,0,45.48-22c14.52-8.19,28.4-17,42-25.59s26.82-17,40.23-24a213.59,213.59,0,0,1,40.91-17c1.73-.58,3.49-1,5.25-1.39l5.26-1.28c.87-.24,1.77-.38,2.66-.54l2.66-.47,5.32-1,10.77-1.24,10.87-.54c14.53-.34,29.38,1.35,44,4.06,1.84.29,3.65.71,5.46,1.12l5.42,1.22c1.82.39,3.58,1,5.38,1.41s3.57.95,5.35,1.46c7.06,2.2,14.07,4.53,20.9,7.41s13.58,6,20.25,9.39l5,2.69L1138,68l2.46,1.42,4.92,2.85,4.9,3c6.52,4,13,8.26,19.54,12.7l19.85,13.56c6.7,4.59,13.65,9.18,20.74,13.67s14.55,8.8,22.16,12.89a229.42,229.42,0,0,0,49.09,19.32,228.48,228.48,0,0,0,52.32,7.31c8.74.25,17.48,0,26.19-.59s17.35-1.74,25.93-3.19,17.06-3.37,25.43-5.58,16.6-4.87,24.71-7.77,16-6.19,23.86-9.69,15.45-7.34,23-11.35C1513,100.39,1540.5,80.56,1565.88,58.89Z"/><path class="cls-2" d="M1386.64,141.58c-1.06.24-3.43.64-7,1.22l-2.91.47c-1,.16-2.17.29-3.37.45-2.4.3-5.08.72-8.07,1a245.83,245.83,0,0,1-49.09.17l-3.89-.39-2-.2-2-.29-8.21-1.23c-2.79-.51-5.62-1.11-8.51-1.68l-2.18-.44-2.18-.55-4.42-1.12a215.24,215.24,0,0,1-36.91-13.43,318.64,318.64,0,0,1-37.76-21.31c-12.63-8.1-25.2-17-38.34-25.63-6.57-4.32-13.27-8.58-20.17-12.67-1.73-1-3.48-2-5.23-3s-3.51-2-5.3-2.94l-5.38-2.87-5.49-2.7c-.92-.45-1.83-.92-2.76-1.35l-2.81-1.26c-1.89-.83-3.76-1.71-5.66-2.52-3.85-1.52-7.67-3.2-11.65-4.53a233.11,233.11,0,0,0-24.4-7.36c-33.64-7.71-70.76-9.9-105.8,1.74l-3.3,1c-1.1.37-2.17.8-3.26,1.2l-6.55,2.43c-4.29,1.89-8.66,3.58-12.92,5.74-8.59,4-17,8.76-25.52,13.75-16.92,10-33.81,21.42-51.54,32.36l-6.71,4.06-3.36,2-3.42,2-6.85,4-7,3.8-3.5,1.9-3.57,1.8-7.15,3.61-7.29,3.38-3.65,1.68c-1.22.57-2.48,1-3.71,1.58a313.66,313.66,0,0,1-61.73,19.17,345.48,345.48,0,0,1-64,6.45,319.65,319.65,0,0,1-63.61-5.5,341.14,341.14,0,0,1-60.13-17.6c-19.18-7.45-37.28-16.29-54.67-25.18s-34.14-17.88-50.62-26.08-32.7-15.59-48.82-21.77A365,365,0,0,0,364.53,40a379.69,379.69,0,0,0-46-7.82c-14.92-1.41-29.31-2.19-43-2.11s-26.69.76-38.85,1.87a459.4,459.4,0,0,0-62.38,10.37c-17.07,4.11-30.26,8.22-39.2,11.14l-10.17,3.46-3.46,1.26c4.16-1.84,8.39-3.49,12.6-5.23l6.36-2.47,3.19-1.23,3.21-1.16,6.42-2.33,6.48-2.2c4.3-1.51,8.68-2.78,13-4.18a471.1,471.1,0,0,1,53.4-12.82q19-2.07,38-2.56c3.18,0,6.35-.16,9.53-.14l9.53.08c3.17.08,6.35.25,9.52.38s6.34.22,9.51.44a382.36,382.36,0,0,1,74.84,12.54l9.1,2.71,4.55,1.37,4.5,1.52c3,1,6,2,9,3.07l8.9,3.34c11.82,4.62,23.5,9.61,35,15.15,23,10.92,45.46,23.36,68.46,35.21,11.52,5.9,23.15,11.68,35.08,17s24.12,10.14,36.58,14.3c3.12,1,6.28,1.95,9.42,2.92,1.58.48,3.14,1,4.73,1.43l4.78,1.25,4.77,1.24c1.6.42,3.19.86,4.8,1.18l9.67,2.07a306.1,306.1,0,0,0,39.19,5.13l4.93.34,2.46.16,2.47.05,9.87.22c3.29.14,6.58,0,9.86-.08l9.86-.25,9.84-.68c3.28-.27,6.57-.38,9.84-.83,6.53-.79,13.1-1.42,19.59-2.63a301.21,301.21,0,0,0,38.61-8.81l9.47-3c3.13-1,6.22-2.23,9.33-3.34,1.55-.57,3.12-1.1,4.65-1.72l4.59-1.88c3-1.28,6.14-2.44,9.12-3.86,24.18-10.67,46.69-24.35,68.46-38.15s43.11-27.58,65.79-37.45a176.54,176.54,0,0,1,71.19-15.48,233,233,0,0,1,72.71,11.62,240.18,240.18,0,0,1,34.12,14.26,347.55,347.55,0,0,1,32.33,18.93c10.59,6.9,21.06,14.23,31.8,21.52s21.73,14.55,33.38,21.09a240.22,240.22,0,0,0,36.68,17,206.06,206.06,0,0,0,39.5,9.92c1.68.25,3.35.56,5,.75l5.06.53,5,.52,5.06.3c3.37.18,6.74.43,10.11.42l5.06.07,5.06-.09A253.78,253.78,0,0,0,1386.64,141.58Z"/><path class="cls-3" d="M1231,106.8l-4.75-2.73c-2.38-1.44-5.59-3.35-9.48-5.82-7.8-4.87-18.31-12-31.24-20.76-6.48-4.35-13.57-9.13-21.38-14s-16.29-9.92-25.6-14.71a255.85,255.85,0,0,0-30.37-13.23,243.8,243.8,0,0,0-35.09-9.7l-9.44-1.63c-1.59-.32-3.21-.45-4.82-.66l-4.87-.6-4.9-.61c-1.65-.16-3.31-.23-5-.35l-5-.32c-1.68-.09-3.36-.28-5.06-.24l-10.24-.05c-3.43.11-6.88.38-10.37.56a184,184,0,0,0-21,2.87,194.12,194.12,0,0,0-41.8,13.46C936.82,44.36,923.45,52,910.12,60.23s-26.63,17-40.37,25.56a478.35,478.35,0,0,1-42.77,24,306.64,306.64,0,0,1-46.37,18.27,310.22,310.22,0,0,1-49,10.41l-6.22.77c-2.08.25-4.15.54-6.24.66l-12.49.94-1.56.12-1.56,0-3.13.09-6.25.19c-2.08,0-4.17.16-6.25.15l-6.24-.11c-8.32,0-16.61-.63-24.86-1.25l-12.32-1.39c-4.08-.57-8.14-1.29-12.2-1.92a316.94,316.94,0,0,1-47.17-12.25,433.37,433.37,0,0,1-43.91-18C527.08,100,513.52,92.93,500.3,86s-26.12-13.64-38.82-19.87c-3.19-1.54-6.33-3.12-9.49-4.59l-9.41-4.38c-6.28-2.76-12.43-5.55-18.61-8s-12.27-4.75-18.27-7c-3-1.07-6-2-9-3l-4.44-1.48c-1.48-.47-3-.88-4.44-1.32A368.27,368.27,0,0,0,322.2,23l-3.69-.45c-1.22-.13-2.43-.2-3.63-.31l-7.1-.56c-2.32-.17-4.6-.38-6.84-.52l-6.6-.24L288,20.69c-2.07-.07-4.09-.18-6.07-.15-4,0-7.73-.06-11.31,0-14.32.15-25.54,1.13-33.18,1.71l-11.69,1.21A442.27,442.27,0,0,1,269.89,18c7.41-.52,14.86-.93,22.31-1l5.6-.11c1.87,0,3.74-.12,5.6,0l11.22.24A377.88,377.88,0,0,1,375.82,28a402.39,402.39,0,0,1,58.56,20.64c19,8.27,37.37,17.66,55.59,27.25S526.31,95.19,544.86,104a400.15,400.15,0,0,0,57.29,22.17c2.44.8,4.94,1.35,7.41,2l7.44,1.94,7.51,1.61,3.76.81,1.88.4,1.89.32,7.58,1.26,3.79.63c1.27.21,2.55.32,3.82.48l7.63.9c1.28.14,2.55.32,3.82.43l3.84.27a344.07,344.07,0,0,0,61.48-.81,303,303,0,0,0,60.27-12.31c2.45-.79,4.92-1.49,7.34-2.36l7.25-2.63,3.62-1.31,3.57-1.46,7.13-2.93c2.37-1,4.69-2.12,7-3.17s4.7-2.09,7-3.27l6.9-3.45c2.32-1.12,4.55-2.4,6.83-3.6,18.16-9.69,35.49-20.86,52.88-31.85,8.7-5.49,17.45-10.92,26.33-16.1s18-9.95,27.35-14.21c2.33-1.08,4.72-2,7.07-3l3.55-1.49,3.62-1.32,3.61-1.32c1.21-.42,2.4-.92,3.63-1.26l7.36-2.25,1.84-.55,1.87-.46,3.73-.9c2.5-.6,5-1.27,7.51-1.66l7.56-1.36c2.53-.39,5.08-.61,7.62-.93l3.82-.44c1.27-.16,2.56-.16,3.83-.25l7.67-.4c1.28-.1,2.56,0,3.84,0l3.84,0,3.84,0,1.92,0c.64,0,1.28.08,1.92.11a252.2,252.2,0,0,1,30.51,3.52l3.78.67,1.89.34,1.87.42,7.5,1.68c2.49.56,4.94,1.3,7.42,1.95l3.7,1,3.66,1.16a228.37,228.37,0,0,1,28.64,11,285.58,285.58,0,0,1,27.18,14.25c8.82,5.22,17.42,10.82,25.93,16.56C1196.26,84.29,1213,96.42,1231,106.8Z"/><path class="cls-4" d="M1150.48,45.72c-.59-.34-1.92-1-3.92-2.08s-4.65-2.52-8-4.13c-1.69-.82-3.52-1.74-5.53-2.7l-6.55-2.94-1.79-.8-1.87-.75-3.91-1.58c-1.34-.53-2.71-1.13-4.14-1.64l-4.42-1.58a251.17,251.17,0,0,0-43.9-11.22,258,258,0,0,0-27.26-2.91c-1.2-.07-2.41-.17-3.63-.22l-3.68,0-7.5,0c-1.26,0-2.53,0-3.81.12l-3.85.22-3.89.23c-1.3.07-2.61.13-3.92.32-5.24.65-10.6,1.16-16,2.3-5.42.86-10.8,2.33-16.29,3.69A227.87,227.87,0,0,0,944,32.16c-21.61,10-42.34,23.49-63.46,37s-42.93,27-66.49,37.54l-2.2,1-2.23.94-4.47,1.86-4.47,1.87-4.55,1.68-4.56,1.68c-1.52.56-3,1.15-4.59,1.61l-9.27,3c-1.54.53-3.13.89-4.69,1.33l-4.71,1.27-4.71,1.27-4.77,1.06c-3.18.69-6.36,1.43-9.55,2.07L739.66,129c-1.61.26-3.2.58-4.82.79l-4.86.6-9.7,1.18-9.75.73-4.87.37c-1.62.15-3.25.12-4.87.19l-9.73.29-2.43.08-2.42,0-4.85-.09-4.83-.08c-1.61,0-3.23,0-4.83-.16l-9.59-.62c-3.2-.14-6.37-.56-9.53-.91l-4.74-.54c-1.58-.18-3.16-.31-4.72-.6l-9.35-1.51-2.33-.37c-.77-.13-1.53-.32-2.3-.47l-4.61-1c-6.15-1.16-12.15-2.83-18.14-4.34-3-.81-5.91-1.76-8.85-2.62l-4.4-1.33-4.33-1.49c-23.1-7.76-44.54-17.92-64.68-28.07s-39-20.45-56.9-29.25-34.64-16.27-49.86-22c-3.83-1.4-7.5-2.83-11.1-4.06l-10.43-3.47c-1.67-.59-3.34-1-5-1.52l-4.76-1.39c-3.1-.9-6.05-1.81-8.9-2.48l-8.05-2c-1.27-.31-2.49-.64-3.68-.91L362,21.16l-11.3-2.34-9.47-1.57,9,1c3,.39,6,.88,9,1.31l4.5.68,2.25.33,2.24.42,9,1.71c1.49.3,3,.55,4.47.89l4.44,1,8.9,2.07L403.85,29l4.42,1.2c1.47.41,2.91.88,4.37,1.32C428.49,37.37,443.91,44.12,459,51.4s29.71,15,44.26,22.72,29,15.29,43.65,22.24a410.67,410.67,0,0,0,44.65,18.33,297.12,297.12,0,0,0,94.2,15.82l3,.07,3-.08,6-.15,6-.14c2-.08,4-.27,6-.4l6-.42,3-.21,1.51-.11,1.49-.17,12-1.4a301.76,301.76,0,0,0,46.85-10.34,301.85,301.85,0,0,0,44.65-17.84c14.45-7.1,28.46-15.26,42.35-23.87s27.68-17.66,42-26.21,29.22-16.59,45-22.92a195.21,195.21,0,0,1,49.49-12.6,213.68,213.68,0,0,1,50.87.42,253.46,253.46,0,0,1,49.39,11c2,.6,4,1.39,6,2.1s4,1.41,5.94,2.19l5.86,2.41c1,.41,2,.79,2.92,1.22l2.88,1.31L1133.7,37l5.65,2.81,2.82,1.42,2.77,1.5Z"/><path class="cls-5" d="M1074.37,10.13a263.78,263.78,0,0,0-36.16-4.21l-2-.13c-.68,0-1.37,0-2.07,0l-4.28,0-4.46,0c-1.52,0-3.06,0-4.64.1l-9.83.57a24.87,24.87,0,0,0-2.56.24l-2.6.31-5.31.64A203.57,203.57,0,0,0,954,19.84c-16.23,6.32-32.5,15.16-48.73,25s-32.38,20.76-49.22,31l-6.34,3.84-6.43,3.72c-4.28,2.54-8.67,4.81-13,7.23-8.85,4.55-17.85,9-27.17,12.78a295,295,0,0,1-28.5,10.19l-7.33,2-3.68,1-1.83.49-1.86.41-7.45,1.64-3.72.82c-1.25.24-2.5.44-3.76.65a331.55,331.55,0,0,1-60.55,5.17,293.92,293.92,0,0,1-58.15-6.08,317.32,317.32,0,0,1-52.39-15.94C557.54,97.27,542.43,90,528.49,83s-26.74-13.86-38.22-19.78c-5.72-3-11.16-5.71-16.18-8.25s-9.72-4.76-13.92-6.82l-11.39-5.29-8.52-3.74c-4.61-2.06-7.14-3-7.14-3,18.46,6.44,36.44,14,54,21.79l35,18.37c11.57,6,23.08,11.83,34.69,17.11,2.9,1.33,5.79,2.68,8.72,3.89s5.83,2.51,8.76,3.7l8.81,3.43c1.46.6,2.95,1.1,4.43,1.62l4.45,1.55a282.68,282.68,0,0,0,36.11,10l4.57,1c1.54.28,3.08.51,4.61.77,3.08.5,6.15,1,9.23,1.52l9.3,1.1c1.55.16,3.1.41,4.66.51l4.68.32c3.12.2,6.23.48,9.36.63l9.41.2,4.7.11,4.72-.12,9.44-.23c1.58,0,3.15-.18,4.72-.27l4.71-.33,4.71-.33,2.36-.16c.78-.07,1.56-.18,2.34-.26,6.22-.78,12.5-1.32,18.65-2.48a275.87,275.87,0,0,0,36.54-8.37l8.94-2.8,8.82-3.2c3-1,5.83-2.3,8.74-3.46l4.35-1.79c1.45-.61,2.87-1.29,4.3-1.94l4.3-2c1.43-.65,2.86-1.3,4.27-2L829,89.69l8.4-4.5c2.8-1.5,5.56-3.15,8.34-4.71,11.1-6.4,22.07-13.29,33.19-20.32s22.38-14.22,34.16-21a301.49,301.49,0,0,1,37.09-18.46,206.09,206.09,0,0,1,40.58-12c3.49-.62,7-1.31,10.5-1.64l5.27-.61c1.76-.21,3.52-.43,5.28-.48l10.58-.56,10.54.08,2.63,0c.88,0,1.75.11,2.62.15l5.23.37,5.23.37,1.3.09,1.3.16,2.58.33,10.33,1.32C1067.55,8.89,1071,9.53,1074.37,10.13Z"/><path class="cls-6" d="M1020.85,0l-9.27.56-2,.12c-.7,0-1.44.16-2.2.24l-4.93.6-5.6.69c-2,.33-4,.73-6.22,1.13s-4.46.8-6.82,1.31l-7.33,1.82-3.87,1-3.94,1.22c-2.66.85-5.44,1.64-8.23,2.63A258.6,258.6,0,0,0,924.92,27c-12.3,6.47-24.81,14.12-37.49,22.18s-25.58,16.51-38.95,24.5A382,382,0,0,1,806.8,95.59a275.73,275.73,0,0,1-45,15.48,303.69,303.69,0,0,1-47,7.7c-3.94.27-7.85.63-11.76.85l-11.66.35-2.89.09-2.88,0-5.71-.1-5.67-.09c-1.88-.09-3.75-.24-5.61-.35l-5.55-.36-2.75-.17c-.92-.06-1.83-.2-2.73-.29l-10.77-1.21c-7-1.12-14-2.13-20.59-3.65a283.8,283.8,0,0,1-37-10.44c-1.41-.49-2.81-.94-4.19-1.46l-4.07-1.56c-2.68-1-5.31-2-7.85-3.06-5.08-2.15-9.91-4.1-14.41-6.19l-6.54-3-6.07-2.9c-3.89-1.82-7.46-3.61-10.69-5.22-6.44-3.17-11.53-5.86-15-7.61l-5.33-2.76C529,75.8,542.64,81.75,556.26,87l6.88,3.15c2.3,1.06,4.61,2,6.91,3s4.6,2,6.92,2.89l6.94,2.71c2.31.94,4.65,1.74,7,2.55l7,2.45,7,2.16c2.35.71,4.69,1.5,7.07,2.07a282.94,282.94,0,0,0,57.87,9.55,325.53,325.53,0,0,0,59.19-2,294,294,0,0,0,29-5.13l1.8-.38,1.78-.47,3.55-.94,7.11-1.88,7-2.2c2.34-.74,4.69-1.42,7-2.3a323.48,323.48,0,0,0,54-25c17.59-9.93,34.9-21.41,53.19-32.75,9.11-5.69,18.61-11.27,28.43-16.55l7.46-3.88c2.53-1.25,5.11-2.45,7.66-3.67s5.19-2.35,7.83-3.46,5.23-2.29,8-3.23l8.13-3c2.76-.89,5.55-1.72,8.32-2.57,1.4-.41,2.76-.89,4.18-1.23l4.25-1,4.25-1,2.12-.51c.71-.16,1.43-.27,2.15-.41l8.61-1.55c1.43-.29,2.88-.45,4.32-.62l4.34-.5C1009.27.46,1015.06.33,1020.85,0Z"/></g></g></svg>