<svg xmlns="http://www.w3.org/2000/svg" xmlns:xlink="http://www.w3.org/1999/xlink" viewBox="0 0 1606.24 132.97"><defs><style>.cls-1{fill:url(#Gradient_2);}.cls-2{fill:url(#Gradient_2-2);}.cls-3{fill:url(#Gradient_2-3);}.cls-4{fill:url(#Gradient_2-4);}.cls-5{fill:url(#Gradient_2-5);}.cls-6{fill:url(#Gradient_2-6);}</style><linearGradient id="Gradient_2" y1="74.65" x2="1606.24" y2="74.65" gradientUnits="userSpaceOnUse"><stop offset="0" stop-color="#aceb1a"/><stop offset="1" stop-color="#29db76"/></linearGradient><linearGradient id="Gradient_2-2" x1="136.86" y1="70.74" x2="1425.46" y2="70.74" xlink:href="#Gradient_2"/><linearGradient id="Gradient_2-3" x1="248.94" y1="61.59" x2="1275.34" y2="61.59" xlink:href="#Gradient_2"/><linearGradient id="Gradient_2-4" x1="362.87" y1="50.47" x2="1180.86" y2="50.47" xlink:href="#Gradient_2"/><linearGradient id="Gradient_2-5" x1="443.02" y1="45.73" x2="1096.29" y2="45.73" xlink:href="#Gradient_2"/><linearGradient id="Gradient_2-6" x1="524.69" y1="44.72" x2="1042.62" y2="44.72" xlink:href="#Gradient_2"/></defs><g id="Capa_2" data-name="Capa 2"><g id="Support_lines" data-name="Support lines"><path class="cls-1" d="M1606.24,16.32c-1.88,2.06-7.85,9.38-18.78,20.26-5.46,5.44-12.18,11.74-20.31,18.6A284.56,284.56,0,0,1,1538,76.5a239.85,239.85,0,0,1-39.39,20.28,217,217,0,0,1-50.14,13.51l-7,.93c-2.36.25-4.77.38-7.18.57-4.81.46-9.74.39-14.73.45-1.25,0-2.5,0-3.75-.09L1412,112c-2.53-.13-5.07-.22-7.61-.55l-7.67-.85-7.68-1.27a212.94,212.94,0,0,1-30.51-7.94c-10-3.4-19.83-7.4-29.47-11.73C1309.84,80.91,1291.29,71,1272.46,62c-9.43-4.48-19-8.78-28.65-12.62a312.11,312.11,0,0,0-29.75-10,255.93,255.93,0,0,0-31.12-6.5l-8-1c-2.68-.3-5.38-.46-8.08-.71l-4.06-.34-4.1-.15c-2.73-.09-5.47-.23-8.22-.29a251.58,251.58,0,0,0-32.84,1.87,184.15,184.15,0,0,0-32,7.25,197.16,197.16,0,0,0-30.9,13.14c-10.21,5.34-20.38,11.6-30.91,18.33s-21.47,13.91-33.19,20.74a279.07,279.07,0,0,1-37.46,18.57A224.94,224.94,0,0,1,912,122.29a263.15,263.15,0,0,1-42.42,4.46,319,319,0,0,1-42.19-2,249.51,249.51,0,0,1-42-8.54,272,272,0,0,1-39.72-15.36c-12.59-6-24.4-12.58-35.73-18.83s-22.17-12.1-33-17a198,198,0,0,0-32.8-11.6,191.49,191.49,0,0,0-34-5.4c-1.44-.1-2.88-.23-4.32-.32l-4.35-.13c-2.9-.09-5.79-.22-8.72-.14s-5.83,0-8.74.13-5.82.24-8.7.44a217.59,217.59,0,0,0-33.67,4.85,203.67,203.67,0,0,0-31.79,10c-20.68,8.3-40.74,20.17-62.4,31.31-10.8,5.54-21.91,10.86-33.28,15.46a309.9,309.9,0,0,1-34.53,11.71,300.14,300.14,0,0,1-34.57,7.38l-8.55,1.32L328,131c-2.84.29-5.65.65-8.47.87l-8.42.51a375,375,0,0,1-64.43-2.08,466.74,466.74,0,0,1-107.6-27.53c-3.9-1.33-7.58-3-11.24-4.48l-10.78-4.51C109.93,91,103.37,87.69,97,84.69L87.6,80.25c-1.52-.74-3.06-1.41-4.52-2.18l-4.33-2.29L62.46,67.17l-3.82-2c-.62-.34-1.25-.67-1.87-1l-1.79-1-6.92-4L35.49,51.73l-5.63-3.28c-1.8-1.05-3.45-2.18-5.07-3.19L16,39.67,0,29.42c41.25,24.24,84.59,45.28,129.84,61,30.63,12.7,62.58,22.81,95.55,29,1,.2,2.05.45,3.09.6l3.11.48,6.22,1,6.23.94c2.08.3,4.15.67,6.25.83,8.38.77,16.73,1.86,25.18,2.06l6.32.29c2.11.1,4.21.23,6.33.18l12.67-.07c2.11,0,4.23-.11,6.34-.22l6.33-.35,6.34-.36,6.32-.65c8.44-.74,16.81-2.06,25.17-3.42,4.16-.81,8.34-1.5,12.48-2.49l6.22-1.4,6.19-1.58c2.07-.5,4.11-1.09,6.16-1.69s4.1-1.17,6.13-1.81c4-1.3,8.12-2.58,12.12-4,8-2.85,15.92-6,23.61-9.5S439.44,91,446.8,87.24s14.55-7.62,21.65-11.37C482.66,68.34,496.5,61.38,510.68,56A200.18,200.18,0,0,1,532.19,49c3.61-1,7.3-1.77,11-2.62,3.71-.66,7.39-1.45,11.14-2,7.44-1.19,15-1.83,22.62-2.32l5.73-.24,2.86-.11h2.87c3.81,0,7.64-.11,11.42.11l5.69.21c1.9.06,3.77.28,5.65.41s3.77.27,5.63.48l5.59.7,2.79.35,2.76.47,5.52.94c1.83.36,3.65.79,5.47,1.17s3.64.78,5.43,1.29l5.4,1.42L655.05,51l2.67.83,2.64.94c1.75.64,3.53,1.21,5.27,1.91,7,2.67,13.9,5.79,20.8,9.16,13.79,6.8,27.51,14.89,42.11,22.83,3.62,2,7.36,3.93,11.09,5.87s7.55,3.83,11.46,5.61,7.84,3.52,11.79,5.23l6,2.39c1,.39,2,.8,3,1.17L775,108a243.66,243.66,0,0,0,25.06,7.45l6.39,1.41c1.06.22,2.12.48,3.19.68l3.21.57,6.43,1.12c2.14.34,4.29.59,6.44.88a294.7,294.7,0,0,0,51.59,2.09,238.81,238.81,0,0,0,51.79-7.94,241.65,241.65,0,0,0,48.64-19.59l5.67-3.06c1.87-1,3.69-2.11,5.54-3.17,3.72-2.09,7.25-4.3,10.86-6.46,7.07-4.36,14-8.78,20.77-13.07s13.44-8.47,20.1-12.29l2.5-1.46,2.5-1.39,5-2.75,5-2.57c.83-.42,1.67-.87,2.51-1.27l2.53-1.18a203.63,203.63,0,0,1,20.49-8.39,188.93,188.93,0,0,1,21.2-5.73,211.5,211.5,0,0,1,44.25-4.22,254.76,254.76,0,0,1,44.85,4.1,266.39,266.39,0,0,1,43.55,12,447.71,447.71,0,0,1,42.55,18.61c14.18,7,28.54,14.55,43.61,21.8,7.61,3.58,15.27,7.17,23.35,10.39,3.95,1.68,8.13,3.13,12.21,4.67,2.08.73,4.2,1.39,6.3,2.09s4.2,1.39,6.37,2l6.47,1.8c2.17.56,4.39,1,6.58,1.54l3.31.75c1.1.25,2.23.41,3.35.61l6.72,1.16a182.22,182.22,0,0,0,27.33,1.92c2.28,0,4.58,0,6.85-.1l6.82-.45,3.41-.24c1.13-.11,2.25-.27,3.38-.41l6.74-.87c2.27-.24,4.45-.75,6.67-1.14l6.63-1.26c4.37-1,8.7-2.15,13-3.23a231.42,231.42,0,0,0,49.3-20.5,266.37,266.37,0,0,0,43.27-30l5-4.25,4.82-4.38,2.41-2.2,2.34-2.25,4.67-4.52Q1597.75,26,1606.24,16.32Z"/><path class="cls-2" d="M1425.46,101.93l-7.35.09-6.55-.31c-1.25-.07-2.57-.1-4-.22l-4.39-.47a197.63,197.63,0,0,1-48.5-11.83c-9.65-3.57-19.9-8-30.62-13.09s-21.93-10.81-33.73-16.67c-23.58-11.7-49.78-24-79.68-31.44a256.86,256.86,0,0,0-47.19-7.33,240.67,240.67,0,0,0-50.63,2l-6.4,1-6.36,1.35-3.2.67-3.16.84c-2.11.57-4.23,1.1-6.35,1.7a213.74,213.74,0,0,0-25,9.32,274.89,274.89,0,0,0-24.51,12.81c-8.13,4.73-16.25,9.93-24.56,15.27s-16.82,10.8-25.69,16.07a284.12,284.12,0,0,1-27.88,14.69L956.1,98.1c-1.23.53-2.48,1-3.72,1.54l-3.73,1.53-1.87.76-1.9.69-7.63,2.72-7.77,2.37c-2.58.85-5.24,1.42-7.87,2.1s-5.27,1.36-8,1.83l-8,1.58-8.07,1.17c-1.34.19-2.69.41-4,.57l-4,.38-8.12.75-8.13.37-4.06.18c-1.36,0-2.71,0-4.06,0l-8.12,0h-2l-2-.09-4.06-.17c-5.41-.15-10.84-.7-16.27-1.15a268.46,268.46,0,0,1-32.42-5.44,241.65,241.65,0,0,1-31.45-9.91,313.25,313.25,0,0,1-29.61-13.53c-9.53-4.9-18.72-10.07-27.76-15s-18-9.74-27-13.94a222.55,222.55,0,0,0-27.31-10.76c-2.32-.68-4.61-1.46-7-2.07l-7-1.8-7.07-1.5c-1.17-.27-2.36-.45-3.54-.64L629,40a212.11,212.11,0,0,0-28.68-2.58l-3.59-.11c-1.2,0-2.4,0-3.6,0l-7.19.07c-2.4.06-4.78.21-7.17.31-1.19.06-2.38.09-3.57.18l-3.54.29a220.12,220.12,0,0,0-27.8,3.87,212.23,212.23,0,0,0-26.48,7.25,255.24,255.24,0,0,0-25.16,10.3c-16.4,7.7-32.23,16.79-48.39,25.11-8.07,4.16-16.2,8.17-24.42,11.76s-16.48,6.85-24.73,9.71-16.52,5.22-24.69,7.27-16.24,3.72-24.21,5a326.2,326.2,0,0,1-46,4.37l-10.86.11-2.67,0c-.88,0-1.77-.06-2.64-.09l-5.24-.21-10.24-.43c-3.35-.26-6.64-.61-9.89-.9l-9.57-.9-9.18-1.33-8.85-1.31-2.16-.31-2.12-.42-4.17-.84c-5.5-1.12-10.8-2.11-15.82-3.22l-14.23-3.62-6.57-1.68-6.1-1.87-11.08-3.43-5-1.53c-1.59-.49-3.07-1.09-4.5-1.59L151.1,96.4l-10.63-3.87c-1.21-.43-2.11-.77-2.7-1l-.91-.37c2.23.84,4.56,1.44,6.84,2.16l6.86,2.06,6.85,2.07,3.42,1c1.15.35,2.28.71,3.45,1l13.89,3.45,6.93,1.72c2.32.57,4.68,1,7,1.43l14,2.73c2.32.51,4.7.76,7.05,1.12l7.07,1,7.05,1,1.76.25c.59.07,1.19.11,1.78.17l3.55.31,14.17,1.27a338.43,338.43,0,0,0,78.76,1,296.34,296.34,0,0,0,76.84-18.19l4.62-1.79,4.57-1.9c3.06-1.23,6-2.63,9.06-4,6-2.74,11.91-5.58,17.73-8.56,11.67-5.91,23-12.16,34.45-18a321.45,321.45,0,0,1,34.72-15.63A212.33,212.33,0,0,1,545.6,36.71a245.45,245.45,0,0,1,37.56-3.93,256.14,256.14,0,0,1,37.71,1.57,200.78,200.78,0,0,1,36.61,7.86c6,1.83,11.81,4.08,17.62,6.43,2.88,1.27,5.77,2.47,8.62,3.81s5.72,2.66,8.54,4.12c22.63,11.3,44.63,25.62,69.17,36.26a241.49,241.49,0,0,0,38,13.09A246.23,246.23,0,0,0,839,112.41c1.66.14,3.33.33,5,.42l5,.24,5,.25c1.66.1,3.33.05,5,.08,3.33,0,6.67.06,10,0l10-.4A237.42,237.42,0,0,0,919,107.43a214.21,214.21,0,0,0,38.36-12.92,313.51,313.51,0,0,0,35.31-18.79c11.27-6.83,22.12-14,33-20.66a315.1,315.1,0,0,1,33-18.11,194,194,0,0,1,34.83-12.34,208.51,208.51,0,0,1,36.57-5.56c3.1-.15,6.2-.34,9.3-.45l9.35,0h2.34l2.34.1,4.67.2,4.68.2c1.55.07,3.1.26,4.66.38l4.65.41c1.55.15,3.11.23,4.65.47l9.25,1.24c6.13,1.05,12.27,2.09,18.32,3.55a284.22,284.22,0,0,1,35.83,10.81c11.75,4.37,23.3,9.46,34.78,15s22.91,11.41,34.55,17.28S1333,79.86,1345.36,85a233.75,233.75,0,0,0,38.8,12.63A173.78,173.78,0,0,0,1425.46,101.93Z"/><path class="cls-3" d="M1275.34,41.45l-5-2.26c-2.52-1.16-5.94-2.6-10.14-4.45A349.42,349.42,0,0,0,1225.05,22c-7.46-2.3-15.78-4.32-24.82-6.21-2.25-.48-4.58-.82-6.93-1.25l-3.57-.62-1.81-.31-1.83-.24c-4.91-.6-10-1.38-15.23-1.71-2.62-.19-5.28-.48-8-.61l-8.23-.3c-1.4,0-2.8-.14-4.21-.12l-4.25,0c-2.86,0-5.75,0-8.68.13a228.79,228.79,0,0,0-36.36,4.27,197,197,0,0,0-37.73,11.68A275.94,275.94,0,0,0,1026,46.34c-12.41,7.57-24.82,15.94-37.91,23.93-6.52,4-13.29,7.86-20.21,11.55-3.52,1.73-7,3.62-10.61,5.21l-5.42,2.48-5.53,2.27a202.76,202.76,0,0,1-46.84,12.67A263.86,263.86,0,0,1,850,106.84l-6.25-.28-6.24-.52c-2.08-.21-4.17-.3-6.25-.59l-6.23-.8c-1-.13-2.09-.25-3.12-.4l-3.11-.53-6.22-1.06c-2.06-.41-4.11-.88-6.17-1.31s-4.12-.87-6.16-1.43l-6.12-1.59c-2-.57-4-1.21-6.06-1.82l-3-.92-3-1c-2-.7-4-1.36-6-2.1-7.91-2.95-15.65-6.33-23.25-9.95-15.19-7.31-29.68-15.76-44.28-23.62s-29.45-15-44.87-20.2a197.6,197.6,0,0,0-23.41-6.33c-3.92-.92-7.91-1.46-11.85-2.14-2-.34-4-.5-5.95-.77s-4-.51-6-.67c-7.93-.67-15.85-1.07-23.72-1-3.94.06-7.86,0-11.76.25l-5.84.27-5.8.47a230.35,230.35,0,0,0-44.73,8.14c-7.13,2.11-14.07,4.53-20.84,7.18s-13.31,5.66-19.7,8.74c-12.78,6.22-24.92,12.93-36.8,19.24s-23.53,12.17-35.07,17a292.52,292.52,0,0,1-33.81,12.13,305.17,305.17,0,0,1-31.55,7.3l-7.41,1.15-3.61.57c-1.2.18-2.38.38-3.56.49l-13.63,1.48-12.62.75-3,.18c-1,0-2,0-2.92,0l-5.61.05-5.31,0c-1.73,0-3.4.07-5,0l-9.1-.37c-2.82-.14-5.44-.19-7.83-.38l-6.49-.61-8.86-.83-2.27-.21-.76-.11c3.75.21,7.51.3,11.26.45l5.62.2c.94,0,1.87.08,2.81.08l2.81,0,11.23-.18,2.8,0c.93,0,1.86-.12,2.8-.17l5.59-.37,5.58-.38,2.78-.19c.93-.06,1.86-.2,2.78-.3l11.09-1.31c1.85-.19,3.68-.5,5.51-.82l5.49-.92,5.48-.92c1.82-.34,3.63-.77,5.44-1.15A287.15,287.15,0,0,0,397.6,89.8c9.62-3.56,19.06-7.64,28.35-12.09s18.43-9.26,27.58-14.11c18.28-9.7,36.8-19.5,56.58-26.41a229.38,229.38,0,0,1,61.24-12.53,278.65,278.65,0,0,1,31.26-.5c2.6.09,5.21.17,7.8.42s5.2.4,7.8.64l7.77,1,1.94.25,1.92.33,3.86.66A209.23,209.23,0,0,1,664,35.14a238.16,238.16,0,0,1,28.83,12c18.72,9.11,36.36,20,54.77,29.48a281.72,281.72,0,0,0,28.25,12.74,229.79,229.79,0,0,0,29.63,9.08c20.15,4.71,40.92,6.46,61.62,6.32,1.3,0,2.59,0,3.88-.09l3.89-.16,3.88-.15,1.94-.08,1.93-.16,7.74-.69,1.94-.17,1.92-.26,3.85-.54c5.15-.6,10.23-1.69,15.32-2.65,2.53-.55,5-1.22,7.56-1.82,1.26-.32,2.53-.58,3.77-1l3.73-1.11c20-5.75,38.71-15.11,56.5-25.72s34.88-22.47,53-32.45a244.45,244.45,0,0,1,27.9-13.37,213.23,213.23,0,0,1,29.49-9.18l7.56-1.55c.63-.13,1.26-.27,1.9-.38l1.9-.29,3.82-.58c5.08-.9,10.23-1.24,15.34-1.8,2.57-.21,5.15-.29,7.72-.43s5.14-.32,7.72-.27c5.15,0,10.3-.12,15.45.2,2.57.12,5.15.2,7.72.35l7.69.68,3.85.34,3.83.5,7.65,1c2.54.41,5.07.9,7.61,1.34l3.8.68c1.26.25,2.51.55,3.77.83l7.53,1.68,7.46,2a295.65,295.65,0,0,1,29.3,9.72Q1261.36,34.77,1275.34,41.45Z"/><path class="cls-4" d="M1180.86,4.28c-.68-.07-2.18-.29-4.45-.52L1167.34,3l-2.95-.24-3.22-.12L1154,2.4c-2.57-.15-5.32,0-8.22,0l-4.48,0c-1.53,0-3.1,0-4.71.13l-10.12.58c-3.51.33-7.17.75-11,1.15s-7.7,1.18-11.76,1.8c-2,.38-4.06.85-6.14,1.28l-3.13.66-1.59.34-1.58.41c-4.23,1.14-8.62,2.19-13,3.69l-3.33,1.07-1.67.53-1.67.62-6.75,2.52a256.49,256.49,0,0,0-27.44,13c-18.51,10-36.76,22.91-56.48,34.81a279.37,279.37,0,0,1-31,16.37,198.67,198.67,0,0,1-34.29,11.59,222.49,222.49,0,0,1-37,5.43l-9.53.43c-3.19.06-6.4,0-9.61,0-1.61,0-3.21,0-4.82,0l-4.83-.21-4.84-.22c-1.61-.07-3.21-.25-4.83-.38a230.31,230.31,0,0,1-38.34-6.19A231.85,231.85,0,0,1,764.87,79c-12-5.32-23.6-11.55-35.23-17.95s-23.3-13-35.4-18.74A243.05,243.05,0,0,0,656.9,27.91a214.43,214.43,0,0,0-38.42-7.27,281.26,281.26,0,0,0-37.59-.89,257.71,257.71,0,0,0-35.78,3.88,228.47,228.47,0,0,0-33.06,8.62,276.6,276.6,0,0,0-29.37,12.1C473.54,48.71,465,53.22,457,57.5s-15.54,8.35-22.66,12A360,360,0,0,1,396.9,86.41c-10.61,4-19.18,6.45-25,8.09l-6.7,1.75c-1.51.38-2.31.55-2.31.55a278.81,278.81,0,0,0,32.81-12.15,339,339,0,0,0,31.1-16c14.57-7.14,29-15.24,44.07-22.84s30.94-14.6,47.57-19.49a223.06,223.06,0,0,1,25.23-6c1.06-.19,2.12-.41,3.19-.58l3.2-.48c2.13-.3,4.26-.68,6.4-.92,4.28-.48,8.55-1,12.83-1.28,8.57-.73,17.12-.87,25.69-.86,2.13,0,4.29.12,6.43.17l6.44.24,6.44.52c2.14.18,4.29.3,6.43.61,4.29.53,8.58,1,12.83,1.81,2.13.39,4.27.67,6.39,1.15l6.34,1.37a213.37,213.37,0,0,1,24.87,7.39c16.28,5.84,31.55,13.68,46.2,21.75s28.8,16.34,43.38,23.2a229.62,229.62,0,0,0,45.12,16.15,247.49,247.49,0,0,0,47.65,6.25,250.08,250.08,0,0,0,48-2.67,201.1,201.1,0,0,0,45.93-13.27c14.75-6.29,28.84-14.26,42.77-23s27.86-18,42.65-26.2l5.56-3.07,5.67-2.91c1-.48,1.89-1,2.85-1.44l2.9-1.35c1.93-.89,3.85-1.83,5.8-2.68,4-1.63,7.85-3.39,11.9-4.79,2-.73,4-1.51,6-2.18l6.13-1.93a213.67,213.67,0,0,1,50.36-8.77A282.29,282.29,0,0,1,1180.86,4.28Z"/><path class="cls-5" d="M1096.29,0c-1.11.27-5,1-11,2.66-1.52.42-3.19.84-5,1.36l-5.75,1.83-3.17,1c-1.1.35-2.19.8-3.33,1.21-2.26.85-4.67,1.72-7.17,2.7a269.7,269.7,0,0,0-33.66,16.61c-12.22,7-25.15,15.58-38.84,24.27S960,69,943.89,75.86l-6.12,2.51-6.28,2.25c-2.09.8-4.25,1.41-6.41,2.07l-3.25,1c-.54.16-1.08.34-1.63.49l-1.66.41-6.67,1.67c-2.25.53-4.54.91-6.82,1.38l-3.44.68c-1.15.21-2.33.35-3.49.52l-7,1A246.19,246.19,0,0,1,862,91.43a256.4,256.4,0,0,1-29.89-1.65,215.69,215.69,0,0,1-58.22-15c-9.38-3.85-18.59-8.36-27.77-13.23s-18.36-10.07-27.76-15.16-19-10.06-28.9-14.43a229.5,229.5,0,0,0-30.3-11.08,232.19,232.19,0,0,0-30.62-6.46L621,13.51l-1.87-.22-1.87-.15-3.72-.28-3.69-.27L608,12.45l-1.83-.06-7.26-.23c-2.41-.12-4.78-.05-7.14,0l-7,.06-6.91.31-3.41.16c-1.14.07-2.27.18-3.39.27l-6.69.54-6.57.77-3.24.4-3.21.49c-2.12.34-4.22.63-6.3,1-8.3,1.5-16.2,3.34-23.61,5.43s-14.33,4.44-20.67,7A328.3,328.3,0,0,0,469,42.89c-8.47,4.32-14.91,7.82-19.28,10.15L443,56.62c16.17-9.87,32.84-20.39,51.3-29.12a243,243,0,0,1,40.75-12.56,259.13,259.13,0,0,1,42.09-5.32,286.48,286.48,0,0,1,42.2,1,223.77,223.77,0,0,1,42,8.32,253.87,253.87,0,0,1,39.37,15.72c12.44,6.15,24.25,12.89,35.69,19.26s22.7,12.41,34.16,17.39a217.62,217.62,0,0,0,35.12,12.1,221.61,221.61,0,0,0,36.81,5.85l2.34.22,2.36.11,4.71.23c1.57.06,3.14.2,4.71.2l4.72,0c6.3.17,12.54-.18,18.78-.43a208.58,208.58,0,0,0,36.65-5.7,195,195,0,0,0,34.85-12.46C974.24,61,995.45,45.9,1018.83,31.8a295,295,0,0,1,37-19.17A214.65,214.65,0,0,1,1096.29,0Z"/><path class="cls-6" d="M1042.62,12.58c-1.64.81-11.42,5.55-25.84,14.26-7.16,4.35-15.46,9.66-24.55,15.5s-19,12.15-29.82,18.08A211.34,211.34,0,0,1,927,76.08a193.78,193.78,0,0,1-41.65,8.53l-5.58.53c-1.88.11-3.78.17-5.68.26l-5.72.26c-1.92,0-3.86,0-5.79,0h-5.84c-2,0-3.9-.16-5.86-.23L845,85.17l-5.86-.5a230.55,230.55,0,0,1-23.3-3.21l-5.74-1.24c-1-.21-1.92-.38-2.87-.63l-2.84-.74c-1.89-.51-3.8-.94-5.67-1.5l-5.62-1.71A224.83,224.83,0,0,1,771,67.29c-7.25-3.21-14.43-6.75-21.6-10.51-14.34-7.58-28.73-16.06-43.82-23.58A260.55,260.55,0,0,0,659.45,15,235.61,235.61,0,0,0,615.29,7.2c-6.88-.62-13.43-.74-19.65-.88-6.2,0-12.08,0-17.59.39L574,6.9l-4,.31c-2.58.23-5.06.38-7.46.65-4.78.56-9.18,1-13.14,1.71-2,.33-3.86.57-5.62.91l-4.94.95c-3.08.56-5.66,1.2-7.76,1.68-4.22.94-6.43,1.59-6.43,1.59,2-.68,4-1.26,6-1.82s4-1.19,6-1.69c4-1,8.08-2.07,12.16-2.86,8.14-1.79,16.34-3,24.55-4L582,3.92l2.14-.09h2.15l4.28,0c5.7-.13,11.46.17,17.21.38a259.8,259.8,0,0,1,34.61,4.34,221.77,221.77,0,0,1,33.79,9.53,286.46,286.46,0,0,1,31.44,13.89c10,5.09,19.47,10.45,28.66,15.58s18.12,10,27.06,14.37a231.06,231.06,0,0,0,27,11.23,209.09,209.09,0,0,0,27.93,7.38l7.15,1.26,7.24,1c2.4.38,4.85.53,7.29.77s4.86.51,7.33.58l7.39.36c2.46.13,4.93.06,7.39.1l3.7,0c1.23,0,2.47,0,3.68,0l7.33-.3c2.46,0,4.86-.3,7.28-.51l3.63-.32c1.21-.11,2.42-.18,3.61-.38l7.17-1,1.79-.25,1.76-.34,3.54-.68,3.53-.67c1.18-.22,2.33-.56,3.5-.83,2.31-.59,4.66-1.08,7-1.74l6.87-2c2.28-.71,4.52-1.57,6.79-2.34a215.55,215.55,0,0,0,26.56-11.87c8.74-4.59,17.4-9.8,26.21-15.34s17.8-11.36,27.19-17.07S1032.31,17.57,1042.62,12.58Z"/></g></g></svg>