<svg xmlns="http://www.w3.org/2000/svg" xmlns:xlink="http://www.w3.org/1999/xlink" viewBox="0 0 690.18 434.63"><defs><style>.cls-1{fill:url(#Gradient_2);}.cls-2{fill:url(#Gradient_2-2);}.cls-3{fill:url(#Gradient_2-3);}.cls-4{fill:url(#Gradient_2-4);}.cls-5{fill:url(#Gradient_2-5);}.cls-6{fill:url(#Gradient_2-6);}</style><linearGradient id="Gradient_2" y1="217.32" x2="690.18" y2="217.32" gradientUnits="userSpaceOnUse"><stop offset="0" stop-color="#aceb1a"/><stop offset="1" stop-color="#29db76"/></linearGradient><linearGradient id="Gradient_2-2" x1="48.34" y1="279.2" x2="680" y2="279.2" xlink:href="#Gradient_2"/><linearGradient id="Gradient_2-3" x1="101.67" y1="306.43" x2="666.54" y2="306.43" xlink:href="#Gradient_2"/><linearGradient id="Gradient_2-4" x1="175.12" y1="299.95" x2="647.71" y2="299.95" xlink:href="#Gradient_2"/><linearGradient id="Gradient_2-5" x1="242.22" y1="297.86" x2="623.07" y2="297.86" xlink:href="#Gradient_2"/><linearGradient id="Gradient_2-6" x1="302.79" y1="305.49" x2="601.2" y2="305.49" xlink:href="#Gradient_2"/></defs><g id="Capa_2" data-name="Capa 2"><g id="Support_lines" data-name="Support lines"><path class="cls-1" d="M683.34,0c.27,3.65,2.13,24.69,4.08,58.91l.69,13.44q.18,3.51.37,7.17l.29,7.47q.29,7.61.6,15.77t.43,16.87c.5,23.2.64,49.19-.44,77.49s-3.25,58.91-8.55,91.35a394.62,394.62,0,0,1-11.47,49.93,246.69,246.69,0,0,1-9.52,25.7c-.93,2.15-1.85,4.31-3,6.46s-2.1,4.3-3.24,6.45L650,383.42c-1.24,2.14-2.68,4.24-4,6.36A115.57,115.57,0,0,1,625,413.66c-1,.94-2.14,1.79-3.27,2.64l-3.39,2.55c-1.15.83-2.39,1.58-3.59,2.36s-2.38,1.59-3.68,2.25a83.3,83.3,0,0,1-7.78,3.93c-1.34.57-2.64,1.2-4,1.7l-4.23,1.47-2.13.71c-.71.21-1.44.38-2.17.56l-4.36,1.05a20.62,20.62,0,0,1-2.19.42l-2.2.34c-1.47.2-3,.47-4.41.59a93.86,93.86,0,0,1-17.34,0,123,123,0,0,1-31.45-7.44,200.84,200.84,0,0,1-27.24-12.7C493,409.36,484.89,404.26,477,399s-15.48-10.74-22.91-16.31-14.74-11.21-21.9-16.91c-28.66-22.78-55.93-46-83.43-67.19-6.87-5.31-13.76-10.43-20.63-15.46s-13.8-9.82-20.73-14.42-13.87-9-20.86-13.09L284,254.06l-2.62-1.48-5.24-2.94c-3.51-1.85-7-3.77-10.51-5.47s-7-3.37-10.52-5c-1.75-.79-3.51-1.51-5.26-2.26l-2.63-1.12-2.63-1a192.61,192.61,0,0,0-21-7l-5.19-1.34-5.18-1.1c-1.72-.4-3.43-.64-5.14-.93s-3.42-.63-5.11-.77l-5.07-.57c-1.69-.16-3.36-.22-5-.33l-2.5-.16h-2.48c-1.64,0-3.29-.07-4.92,0-3.26.19-6.5.25-9.67.68-3.2.25-6.32.87-9.43,1.36a117.83,117.83,0,0,0-18,5l-2.16.77c-.72.25-1.44.5-2.21.84L137,233.06c-1.51.59-3,1.29-4.44,1.95s-2.93,1.3-4.37,2c-2.85,1.44-5.73,2.74-8.47,4.25l-4.13,2.19-4,2.3a241,241,0,0,0-29.24,19.81,265.79,265.79,0,0,0-24,21.32,315.81,315.81,0,0,0-33.94,40.25c-8.51,12-14.53,21.9-18.49,28.73-2,3.42-3.46,6.07-4.44,7.86S0,366.42,0,366.42c12.12-28.11,27.55-55,46.79-79.25a296.59,296.59,0,0,1,23.36-21.8,265.52,265.52,0,0,1,25.61-18.81,244.69,244.69,0,0,1,27.63-15.38q7.12-3.39,14.47-6.28l1.83-.74,1.78-.63,3.56-1.24c2.34-.91,4.79-1.46,7.18-2.18a124.11,124.11,0,0,1,29.56-4.32,139.87,139.87,0,0,1,30.1,2.57c20,3.83,39.69,11.59,58.54,21.37s37,21.6,54.74,34.3,34.92,26.44,52.07,40.46,34.2,28.44,51.69,42.67,35.39,28.35,54.86,41.29a286.43,286.43,0,0,0,30.89,18c1.34.7,2.78,1.31,4.17,2s2.78,1.31,4.22,1.91c2.91,1.18,5.73,2.45,8.77,3.48a127,127,0,0,0,18.77,5.34,101,101,0,0,0,20.56,1.91,85,85,0,0,0,21.38-3.29,83.86,83.86,0,0,0,19.65-8.84A90.4,90.4,0,0,0,628.63,406a128.79,128.79,0,0,0,23-31.64,211.56,211.56,0,0,0,14.15-33.89c1-2.85,1.78-5.71,2.65-8.57l1.27-4.28c.42-1.43.75-2.86,1.13-4.29l2.2-8.59,1.92-8.59c.31-1.43.66-2.86.93-4.29l.82-4.29,1.63-8.59,1.39-8.59c.47-2.86,1-5.72,1.31-8.58,3.23-22.88,5.16-45.71,6.35-68.47s1.62-45.46,1.48-68.1l0-8.49-.14-8.48c-.11-5.65-.15-11.31-.32-17-.35-11.28-.64-22.58-1.19-33.84C686.33,44.94,684.87,22.47,683.34,0Z"/><path class="cls-2" d="M679.81,133.9l.19,14.43c0,4,0,8.79,0,14.27,0,2.74,0,5.66-.06,8.75s-.14,6.36-.22,9.79c-.24,13.7-1,30.05-2.26,48.58A603.07,603.07,0,0,1,670,291.39q-.76,4.2-1.56,8.48c-.53,2.85-1.2,5.72-1.81,8.62-.31,1.45-.63,2.9-.94,4.36s-.72,2.93-1.08,4.4c-.75,2.93-1.44,5.9-2.27,8.88a242.24,242.24,0,0,1-12.88,36.38c-.63,1.55-1.45,3.05-2.19,4.58L645,371.67l-2.56,4.54c-.85,1.51-1.68,3-2.68,4.51s-1.92,3-2.89,4.47-2.11,2.92-3.17,4.38l-1.62,2.19c-.57.72-1.18,1.41-1.77,2.12-1.2,1.39-2.34,2.84-3.63,4.2-10.08,11-23.65,20.31-39.6,24.23a77.76,77.76,0,0,1-24.12,2,100.91,100.91,0,0,1-23.07-4.46,162.18,162.18,0,0,1-21.23-8.33q-10.15-4.89-19.72-10.6c-12.72-7.62-24.85-16-36.59-24.72s-23.21-17.76-34.49-26.87c-22.56-18.22-44.57-36.67-66.68-53.93S316.92,262,294.45,248.52a340.68,340.68,0,0,0-33.8-17.92,219.28,219.28,0,0,0-33.78-12.4,161.46,161.46,0,0,0-32.9-5.51,130.39,130.39,0,0,0-30.63,1.77c-2.43.33-4.78,1-7.13,1.49s-4.63,1.2-6.89,1.86c-1.13.33-2.26.64-3.37,1L142.68,220l-3.23,1.16c-1.07.37-2.17.88-3.24,1.3a229.75,229.75,0,0,0-23.92,11.29c-7.3,4-14,8-19.94,12s-11.34,7.91-16,11.64a272.43,272.43,0,0,0-21,18.25c-2.34,2.2-4.05,4-5.23,5.14l-1.78,1.79a272.26,272.26,0,0,1,54.89-51.16,237.58,237.58,0,0,1,23.46-11.73c2-.91,4-1.71,6.05-2.53s4-1.66,6.08-2.33,4-1.46,6.09-2.1L151.1,211a136,136,0,0,1,51-3.28,161,161,0,0,1,25.35,5,219.79,219.79,0,0,1,24.6,8.46c8,3.34,16,7.06,23.72,11.1s15.36,8.45,22.85,13.05c29.94,18.52,57.86,40.49,85.4,63l41.27,34.15c13.83,11.38,27.81,22.69,42.34,33.49q10.88,8.13,22.32,15.68c7.64,5,15.51,9.81,23.74,14.14a164,164,0,0,0,26,11.15,98.75,98.75,0,0,0,29,5c.63,0,1.26,0,1.9,0l1.91-.1,3.81-.22c1.28-.1,2.55-.33,3.82-.5l1.91-.28,1-.14.94-.22a66.4,66.4,0,0,0,7.48-2l3.67-1.25c1.19-.48,2.36-1,3.53-1.5a80.1,80.1,0,0,0,24.67-17.39,116.14,116.14,0,0,0,17.49-23.35c2.48-4.12,4.54-8.38,6.64-12.64l2.86-6.45.71-1.62.63-1.64,1.28-3.27c6.79-17.45,11.25-35.36,14.79-53.3s5.91-36,7.72-54S678.28,206,679,188c.26-9,.61-18,.66-27,.05-4.51.16-9,.15-13.52Z"/><path class="cls-3" d="M666.54,243.81c-.28,2.31-1.25,15.75-4.58,37.3-.75,5.4-1.93,11.26-3.06,17.61-1.34,6.32-2.73,13.12-4.61,20.25-3.7,14.26-8.6,30.14-16.76,46.21a123,123,0,0,1-15.35,23.49c-.8.91-1.55,1.88-2.4,2.77l-2.59,2.65-1.3,1.34c-.45.43-.93.83-1.39,1.25l-2.83,2.49a71.61,71.61,0,0,1-12.79,8.5,62.06,62.06,0,0,1-14.79,5.51,70,70,0,0,1-7.93,1.41l-4,.26c-.67,0-1.35.11-2,.11l-2,0a82,82,0,0,1-16.26-1.85l-4-.94c-1.35-.29-2.64-.75-4-1.11-2.67-.73-5.26-1.68-7.88-2.6-1.32-.44-2.59-1-3.88-1.51s-2.58-1-3.86-1.58l-3.81-1.73c-1.28-.57-2.54-1.16-3.78-1.8-2.51-1.24-5-2.48-7.48-3.85-1.23-.68-2.47-1.35-3.71-2l-3.65-2.12c-9.75-5.69-19.24-12-28.56-18.64-18.64-13.3-36.66-27.84-54.56-42.41S387,303.5,369.21,289.53s-35.63-27.2-53.54-39a380.29,380.29,0,0,0-53.83-29.92,235.55,235.55,0,0,0-26.61-9.95,174.34,174.34,0,0,0-25.77-6,143.62,143.62,0,0,0-46,0c-1.68.3-3.36.52-5,.87l-4.77,1.09-2.32.54c-.76.19-1.51.43-2.25.64l-4.36,1.28c-5.65,1.8-10.74,3.76-15.31,5.7-2.31.91-4.41,1.94-6.43,2.83L120.16,219l-2.69,1.32-4.78,2.36-3.92,2.08c-2.35,1.22-4.11,2.23-5.3,2.92l-1.8,1a253.43,253.43,0,0,1,26.39-16.05c2.31-1.17,4.58-2.41,6.94-3.51l7.12-3.24,7.35-2.83c2.47-.86,5-1.61,7.52-2.42.88-.22,1.78-.37,2.69-.51l2.7-.43,2.71-.43,1.35-.22,1.36-.14c3.64-.35,7.26-.79,10.91-.86a151.33,151.33,0,0,1,21.82.63,187,187,0,0,1,42.29,9.64,273.64,273.64,0,0,1,39.48,17.5c12.68,6.79,24.92,14.31,36.83,22.28,23.8,16,46.31,33.73,68.45,51.81s43.86,36.66,66.26,54.39c11.2,8.86,22.56,17.53,34.35,25.6q8.81,6.09,18,11.61c6.1,3.71,12.43,7.06,18.88,10.15a133.21,133.21,0,0,0,20,7.75,89.29,89.29,0,0,0,21.16,3.73,64.29,64.29,0,0,0,21.39-2.53A66,66,0,0,0,607,401a80.74,80.74,0,0,0,15.7-14.86c.29-.34.59-.68.87-1l.81-1.09,1.63-2.16,1.62-2.17,1.49-2.26c1-1.51,2-3,2.93-4.54l2.69-4.69c.94-1.54,1.69-3.18,2.52-4.78s1.66-3.19,2.4-4.83l2.19-4.94,1.09-2.46,1-2.52c1.3-3.35,2.66-6.68,3.75-10.1l1.74-5.11c.58-1.7,1-3.43,1.57-5.15a381.86,381.86,0,0,0,9.79-41.91C663.16,272.29,665.06,258.07,666.54,243.81Z"/><path class="cls-4" d="M647.71,310.9c-.22.88-1,3.88-2.15,8.73-.64,2.41-1.5,5.25-2.43,8.52-.24.82-.48,1.66-.73,2.53s-.58,1.74-.88,2.65c-.6,1.81-1.24,3.73-1.9,5.74a181.74,181.74,0,0,1-12,27.12l-2.1,3.71-2.37,3.66c-.39.62-.79,1.24-1.2,1.87s-.87,1.2-1.31,1.81l-2.7,3.66a81.44,81.44,0,0,1-13.4,13.36A59.52,59.52,0,0,1,587,403.77a57.75,57.75,0,0,1-21,2.84,85.88,85.88,0,0,1-22.62-4.35,151.27,151.27,0,0,1-22.76-9.7c-15.06-7.82-29.84-17.68-44.41-28.33s-28.95-22.15-43.25-33.76C404.35,307.22,376,283.51,348,263c-14-10.29-27.9-19.72-41.51-28.07a366.66,366.66,0,0,0-39.82-21.22,239.48,239.48,0,0,0-36.12-13,177.84,177.84,0,0,0-29.33-5.4l-1.53-.17-1.49-.09-2.86-.17-2.68-.17-1.28-.07-1.23,0c-3.24,0-6-.09-8.22,0l-6.83.34a164.79,164.79,0,0,1,25.93-1.75,187.6,187.6,0,0,1,26,2.33c23.42,5.88,45.22,15.72,65.67,27.17s39.65,24.7,58.18,38.52c37.06,27.66,71.38,58.12,106.91,86.36,17.77,14.06,35.87,27.66,55.05,38.88a171.18,171.18,0,0,0,29.63,14,93.46,93.46,0,0,0,15.39,4l1.94.34c.64.09,1.29.14,1.93.21,1.29.11,2.58.31,3.87.36l3.85.11a15.13,15.13,0,0,0,1.91,0l1.91-.1c.64,0,1.28-.06,1.91-.11l1.88-.27,1.88-.27.94-.13.92-.22,3.69-.86,3.59-1.19a60.87,60.87,0,0,0,13.6-7A79.35,79.35,0,0,0,613.47,385l2.59-3,1.3-1.51,1.21-1.6,2.41-3.21c.79-1.09,1.49-2.25,2.24-3.37a153.28,153.28,0,0,0,14.63-29.4A271.37,271.37,0,0,0,647.71,310.9Z"/><path class="cls-5" d="M623.07,359c-.25.65-1.4,2.6-3.19,5.81-.23.41-.46.83-.71,1.26s-.54.85-.84,1.3l-1.87,2.92c-.64,1.07-1.43,2.09-2.24,3.19l-1.25,1.7a22.09,22.09,0,0,1-1.35,1.75l-3,3.57L605.12,384q-1.89,1.71-4,3.5L599,389.19l-1.11.85c-.38.27-.78.5-1.18.76l-2.41,1.56c-.84.47-1.71.91-2.57,1.39-.44.22-.87.48-1.32.7l-1.38.6-1.39.61-.7.32-.72.24-2.9,1c-1,.34-2,.5-3,.78l-1.55.39-1.61.23-1.63.25a12.76,12.76,0,0,1-1.66.2c-8.94.81-19.3-.71-30.2-4.54a138.58,138.58,0,0,1-16.65-7c-5.64-2.73-11.3-6-17-9.39s-11.42-7.21-17.16-11.12-11.47-8.06-17.19-12.37c-11.48-8.55-22.93-17.67-34.35-26.89-22.81-18.48-45.51-37.45-67.52-54.53s-43.34-32.32-62.66-44.1c-9.65-5.91-18.77-11-27-15.21l-6-3c-1.95-1-3.87-1.81-5.7-2.67-3.63-1.73-7.09-3.13-10.17-4.46-6.23-2.55-11.2-4.39-14.65-5.54l-3.91-1.35-1.36-.41a272.31,272.31,0,0,1,39.9,12.79c4.33,2.14,8.52,4.45,12.73,6.73s8.32,4.7,12.36,7.19,8.07,5,12.08,7.51,7.91,5.16,11.77,7.84c7.78,5.29,15.38,10.76,22.87,16.34s14.84,11.25,22.12,17c29.09,22.94,56.77,47,85,69.5q10.57,8.43,21.32,16.42c7.16,5.32,14.4,10.43,21.75,15.19A249.49,249.49,0,0,0,526.48,386a135.37,135.37,0,0,0,22.85,9.38c1.92.64,3.82,1,5.72,1.49,1,.26,1.89.39,2.84.56l2.83.5c.93.13,1.86.2,2.79.3a26.52,26.52,0,0,0,2.78.24,52.36,52.36,0,0,0,5.46,0l2.69-.14,2.63-.38,1.31-.17c.44-.07.86-.2,1.29-.29l2.57-.59c.85-.19,1.66-.55,2.5-.8l1.25-.41a9.91,9.91,0,0,0,1.25-.46l2.48-1.07a9.7,9.7,0,0,0,1.22-.58l1.19-.63a49.45,49.45,0,0,0,4.7-2.77,24.29,24.29,0,0,0,2.25-1.6c.74-.56,1.5-1.08,2.23-1.66l2.12-1.86a23.52,23.52,0,0,0,2.09-1.92c1.33-1.39,2.76-2.65,4-4.19A105.52,105.52,0,0,0,623.07,359Z"/><path class="cls-6" d="M601.2,379.73A50.79,50.79,0,0,1,590,388.12a41.32,41.32,0,0,1-5.81,2.69c-1.07.33-2.14.78-3.29,1.11s-2.37.6-3.63.85a51.57,51.57,0,0,1-18.12-.14,97.64,97.64,0,0,1-23.23-7.33,214.29,214.29,0,0,1-26-14c-17.86-11.09-36.29-25.11-54.51-39.63S419,302,401.74,288.08c-8.64-7-17.06-13.7-25.16-20S360.71,256,353.43,250.67c-14.56-10.6-27.21-19-36.25-24.58-4.49-2.84-8.14-5-10.59-6.41s-3.8-2.21-3.8-2.21c10,4.74,19.82,9.84,29.43,15.17,25.17,17.07,48.6,35.66,71.41,54.38s45,37.65,67.54,55.29c11.27,8.76,22.61,17.27,34.16,24.85q8.64,5.74,17.43,10.64c1.46.79,2.92,1.66,4.39,2.39l4.39,2.25c2.94,1.37,5.87,2.79,8.8,3.94,11.69,4.83,23.33,7.54,33.39,6.53,1.25-.18,2.48-.36,3.73-.51s2.41-.58,3.62-.83c1.17-.41,2.34-.8,3.53-1.17s2.36-1,3.53-1.52A52.75,52.75,0,0,0,601.2,379.73Z"/></g></g></svg>