<svg xmlns="http://www.w3.org/2000/svg" xmlns:xlink="http://www.w3.org/1999/xlink" viewBox="0 0 555.21 132.9"><defs><style>.cls-1{fill:url(#Gradient_2);}.cls-2{fill:url(#Gradient_2-2);}.cls-3{fill:url(#Gradient_2-3);}.cls-4{fill:url(#Gradient_2-4);}.cls-5{fill:url(#Gradient_2-5);}.cls-6{fill:url(#Gradient_2-6);}</style><linearGradient id="Gradient_2" y1="85.29" x2="555.21" y2="85.29" gradientUnits="userSpaceOnUse"><stop offset="0" stop-color="#aceb1a"/><stop offset="1" stop-color="#29db76"/></linearGradient><linearGradient id="Gradient_2-2" x1="50.35" y1="75.69" x2="506.97" y2="75.69" xlink:href="#Gradient_2"/><linearGradient id="Gradient_2-3" x1="91.49" y1="66.54" x2="461.21" y2="66.54" xlink:href="#Gradient_2"/><linearGradient id="Gradient_2-4" x1="133.84" y1="58.56" x2="428.27" y2="58.56" xlink:href="#Gradient_2"/><linearGradient id="Gradient_2-5" x1="166.52" y1="51.4" x2="397.93" y2="51.4" xlink:href="#Gradient_2"/><linearGradient id="Gradient_2-6" x1="194.84" y1="45.13" x2="376.94" y2="45.13" xlink:href="#Gradient_2"/></defs><g id="Capa_2" data-name="Capa 2"><g id="Support_lines" data-name="Support lines"><path class="cls-1" d="M555.21,123.78c-.73-.58-3.18-2.61-7.11-5.91l-7-5.88c-1.35-1.12-2.75-2.37-4.3-3.58l-4.92-3.82L520.6,95.82l-13.42-9.54c-2.35-1.75-4.88-3.32-7.46-5l-7.92-5.11c-2.68-1.83-5.56-3.33-8.44-5s-5.83-3.41-8.86-5.1a261.49,261.49,0,0,0-40-17.4,151.34,151.34,0,0,0-45.23-7.84c-1,0-1.94-.06-2.91-.06l-2.9.16-2.92.13c-1,.07-2,0-2.91.2l-5.81.67c-1,.07-1.93.31-2.9.47l-2.89.53a106.08,106.08,0,0,0-22.6,6.92,131.83,131.83,0,0,0-21.57,12c-7.1,4.8-14.18,10.33-21.52,16.31s-15,12.33-23.17,18.55a214.57,214.57,0,0,1-26.7,17.49,156.66,156.66,0,0,1-30.27,12.52,155,155,0,0,1-31.34,5.72,176.5,176.5,0,0,1-58.66-5.58,243.08,243.08,0,0,1-47.55-18.32c-6.92-3.53-13.38-7.15-19.39-10.73S51.72,90.57,46.59,87.11C36.37,80.16,27.87,73.69,21,68.25S8.91,58.38,5.38,55.34L0,50.65a474.8,474.8,0,0,0,47.1,27C67.24,92.08,89.06,104.85,113,114c6,2.31,12.11,4.25,18.31,6l4.7,1.22,2.36.61,2.38.52,4.78,1,4.82.85c1.61.31,3.23.53,4.86.75s3.25.45,4.88.63c3.28.28,6.55.67,9.86.76a155.42,155.42,0,0,0,19.89-.24c3.32-.32,6.64-.57,9.94-1.11,1.65-.26,3.31-.45,4.95-.77l4.93-1A145,145,0,0,0,229,117.76a149.91,149.91,0,0,0,18.4-8.12,193,193,0,0,0,16.94-10.09c10.75-7.2,20.51-15,29.8-22.44,4.66-3.69,9.22-7.29,13.76-10.69S317,59.88,321.58,57a134,134,0,0,1,13.9-7.76c2.33-1.18,4.73-2.15,7.11-3.19s4.8-1.88,7.27-2.62,4.93-1.47,7.4-2.16c1.25-.33,2.52-.57,3.77-.86l1.89-.43c.63-.13,1.28-.21,1.91-.32a118.66,118.66,0,0,1,15.39-1.76l3.89-.13a33.63,33.63,0,0,1,3.89,0c2.6.12,5.2.15,7.81.31l7.83.83c1.31.09,2.61.4,3.92.61l3.91.7c1.3.24,2.61.41,3.91.71l3.9,1,3.9,1c1.3.32,2.6.61,3.89,1.06l7.74,2.46,1.93.61c.65.2,1.28.48,1.92.72l3.82,1.49C462.9,57,482.59,68.1,501.33,81A547.75,547.75,0,0,1,555.21,123.78Z"/><path class="cls-2" d="M507,73.78l-6.28-4-6.19-4-8.24-4.73C474.1,54.15,456.88,45,435.43,38.36c-2.69-.79-5.41-1.65-8.2-2.44l-8.58-2-2.19-.51c-.73-.13-1.47-.23-2.22-.36l-4.48-.71c-1.51-.23-3-.53-4.55-.7l-4.63-.41a132,132,0,0,0-38.52,2.09,122.26,122.26,0,0,0-19.34,5.84,129.7,129.7,0,0,0-18.65,9.23c-12.19,7.22-23.74,16.58-35.7,26.4s-24.57,20-38.73,28.17a142.87,142.87,0,0,1-45,17,157.74,157.74,0,0,1-22.85,2.64,173.16,173.16,0,0,1-21.89-.71,194.18,194.18,0,0,1-20.3-3.3c-1.62-.36-3.2-.77-4.78-1.15l-2.35-.58-2.31-.64L125.58,115l-4.4-1.4a233.27,233.27,0,0,1-30.49-12.44c-8.76-4.28-16.11-8.45-22.08-12s-10.5-6.52-13.56-8.59l-3.51-2.34-1.19-.83c6.48,3.13,13,6.1,19.65,8.83s13.33,5.2,20.08,7.44c17.29,9,35.73,16.28,55.14,20.35a157.63,157.63,0,0,0,29.61,3.45A145.4,145.4,0,0,0,204.75,115a137,137,0,0,0,28.88-8.82,165.41,165.41,0,0,0,26.25-14.57c16.5-11.08,30.88-24,45.93-34.89A178.65,178.65,0,0,1,329,42.24a126.2,126.2,0,0,1,25-9.53,133.68,133.68,0,0,1,53.09-2.55c17.77,2.73,35.19,8.44,51.87,16.06l6.25,2.86c2.08,1,4.09,2.12,6.14,3.18l6.11,3.22c1,.55,2.05,1.05,3.05,1.64l3,1.78c4,2.39,8,4.72,11.9,7.14Z"/><path class="cls-3" d="M461.21,37.67l-5.59-2.4-12.94-4.76c-10.95-3.46-26.36-7.85-45.09-9.14a148.43,148.43,0,0,0-29.95,1.23l-7.93,1.45-4,.95-2,.48-2,.57-4,1.17-4,1.37c-.67.23-1.34.45-2,.7l-2,.79c-1.32.53-2.67,1-4,1.61a159.53,159.53,0,0,0-30.59,17.77c-9.83,7.07-19.25,15.06-28.89,22.86A255.61,255.61,0,0,1,246.12,94a148.63,148.63,0,0,1-16.28,8.32A131.38,131.38,0,0,1,213,108.24a139.08,139.08,0,0,1-33.29,4.9,154.78,154.78,0,0,1-30-2.25,179.45,179.45,0,0,1-24.6-6.08c-3.61-1.11-6.9-2.35-10-3.46s-5.83-2.24-8.3-3.34l-3.52-1.5-3.06-1.41c-1.91-.87-3.53-1.61-4.81-2.26l-4-2A233.08,233.08,0,0,0,123.85,99a170.69,170.69,0,0,0,44.06,9.46,138.67,138.67,0,0,0,44.84-4.19A129.75,129.75,0,0,0,234,96.41,157.3,157.3,0,0,0,253.8,85.17c12.72-8.4,24.44-18.31,36.53-27.72S315,39.12,328.88,32.61a131.63,131.63,0,0,1,43.91-12,148.33,148.33,0,0,1,45.32,2.67A213.26,213.26,0,0,1,461.21,37.67Z"/><path class="cls-4" d="M428.27,17.76l-4.95-1.1-2.25-.51-1.27-.29-1.39-.22-6.43-1L408.24,14c-1.31-.17-2.69-.26-4.11-.39l-4.42-.4c-1.53-.13-3.1-.31-4.74-.3l-5-.1-2.63-.05c-.44,0-.89,0-1.34,0l-1.35.06-5.58.27-2.88.15-2.93.34-6,.7c-2,.31-4.09.73-6.18,1.1l-3.17.59-3.17.76-3.23.77-3.23.94a140.86,140.86,0,0,0-26.14,10.6,194.53,194.53,0,0,0-25,16c-8,6-15.7,12.37-23.33,18.59s-15.23,12.24-23,17.54a147.24,147.24,0,0,1-23.83,13.32,128.42,128.42,0,0,1-46.61,10.31,151.73,151.73,0,0,1-19.2-.72c-2.84-.37-5.51-.61-8-1.07l-3.53-.58c-1.12-.19-2.18-.44-3.19-.64-4-.76-7.19-1.64-9.34-2.14l-3.27-.92a158.53,158.53,0,0,0,25.49,1c2.83.45,5.67.63,8.52.92,1.42.1,2.84.15,4.27.22l2.13.11h6.41l4.26-.19c.71,0,1.42,0,2.13-.1l2.13-.2c1.41-.14,2.83-.24,4.24-.42a131.29,131.29,0,0,0,16.73-3.19,127,127,0,0,0,16.11-5.51,156,156,0,0,0,30-17.37c9.63-6.89,19-14.66,28.78-22.3a245.71,245.71,0,0,1,31.31-21.42A155.32,155.32,0,0,1,333.86,22a137.94,137.94,0,0,1,18.46-5.87,147.1,147.1,0,0,1,38.26-3.9A163.67,163.67,0,0,1,428.27,17.76Z"/><path class="cls-5" d="M397.93,5.62c-.43-.06-1.9-.08-4.28-.12l-4.24-.07c-1.62,0-3.46-.11-5.5,0a155.18,155.18,0,0,0-32.45,4.46A144.52,144.52,0,0,0,331,16.69a160.08,160.08,0,0,0-21,10.75c-13.89,8.37-26.79,19-38.94,28.94-6.09,5-12.06,9.8-18,14.15a172,172,0,0,1-17.69,11.56,123.83,123.83,0,0,1-17.34,8.07c-2.82,1.09-5.64,1.91-8.35,2.77-2.76.68-5.39,1.46-8,1.94a123.21,123.21,0,0,1-25.43,2.66c-1.55,0-2.94,0-4.14-.06l-3.07-.11c-.83,0-1.46-.09-1.89-.12l-.65,0a128,128,0,0,0,18.9-3.31,115,115,0,0,0,25.33-4.33,114.68,114.68,0,0,0,23.82-9.89c15.44-8.32,29.8-20.48,45.57-32.87a285.54,285.54,0,0,1,25.24-18,157.86,157.86,0,0,1,28.9-14.35l1.91-.73,1.93-.64L342,11.8c2.6-.78,5.22-1.5,7.84-2.19l4-.9c1.32-.3,2.64-.62,4-.82,2.66-.45,5.32-.91,8-1.33A167.39,167.39,0,0,1,397.93,5.62Z"/><path class="cls-6" d="M376.94,0c-.36.05-1.59,0-3.56.31l-8.07,1c-1.68.24-3.51.61-5.49,1l-3.07.57-1.61.3-1.65.4a150.12,150.12,0,0,0-14.74,4.14l-4,1.39-4.11,1.62c-2.8,1-5.56,2.39-8.45,3.66a186.81,186.81,0,0,0-17.1,9.38c-11.3,7-22.07,15.48-32,23.6S253.84,63.14,245,69.21A131.68,131.68,0,0,1,220.46,83a111.91,111.91,0,0,1-18.38,5.9c-2.3.45-4.09.89-5.33,1.07l-1.91.3a104.12,104.12,0,0,0,13.36-5.69c12.55-3.42,24.28-9.3,36-17.23s23.36-17.78,36.36-27.82c6.51-5,13.39-10,20.75-14.65a172.7,172.7,0,0,1,23.47-12.52,152.19,152.19,0,0,1,25.63-8.5c4.36-1.09,8.79-1.77,13.21-2.51,1.1-.22,2.22-.31,3.33-.43l3.33-.35C372.49.36,374.71,0,376.94,0Z"/></g></g></svg>